<svg width="372.257" height="78.64" viewBox="0 0 372.257 78.64" xmlns="http://www.w3.org/2000/svg"><g id="svgGroup" stroke-linecap="round" fill-rule="evenodd" font-size="9pt" stroke="#000" stroke-width="0.25mm" fill="#000" style="stroke:#000;stroke-width:0.25mm;fill:#000"><path d="M 55.176 2.663 L 55.664 2.956 A 17.225 17.225 0 0 0 55.423 3.506 Q 55.103 4.275 55.029 4.714 A 7.345 7.345 0 0 1 54.949 5.126 Q 54.904 5.326 54.851 5.497 A 3.495 3.495 0 0 1 54.785 5.691 Q 54.715 5.867 54.669 6.006 A 2.846 2.846 0 0 0 54.639 6.106 Q 54.592 6.269 54.546 6.365 A 0.758 0.758 0 0 1 54.541 6.374 Q 54.504 6.449 54.466 6.553 A 2.773 2.773 0 0 0 54.443 6.618 A 1.92 1.92 0 0 1 54.4 6.735 Q 54.358 6.838 54.297 6.96 A 1.995 1.995 0 0 1 54.164 7.156 Q 53.938 7.449 53.711 7.449 Q 53.419 7.449 52.933 7.933 A 4.462 4.462 0 0 0 52.93 7.937 A 10.296 10.296 0 0 1 52.789 8.12 Q 52.635 8.316 52.513 8.448 A 2.675 2.675 0 0 1 52.441 8.523 L 51.953 9.011 A 6.929 6.929 0 0 0 51.801 9.286 Q 51.668 9.538 51.607 9.719 A 1.114 1.114 0 0 0 51.563 9.89 A 0.467 0.467 0 0 1 51.441 10.135 Q 51.273 10.324 50.879 10.476 A 2.57 2.57 0 0 1 50.693 10.516 Q 50.475 10.553 50.313 10.535 A 0.791 0.791 0 0 1 50.244 10.525 Q 50.063 10.499 49.922 10.542 A 0.512 0.512 0 0 0 49.707 10.671 Q 48.682 11.044 48.012 11.15 A 4.235 4.235 0 0 1 47.949 11.16 A 76.542 76.542 0 0 1 47.241 11.257 A 93.172 93.172 0 0 1 46.484 11.355 Q 45.361 11.843 44.922 11.843 A 2.37 2.37 0 0 0 44.72 11.853 Q 44.511 11.871 44.233 11.923 A 8.112 8.112 0 0 0 44.141 11.941 A 10.434 10.434 0 0 0 43.64 12.08 A 12.861 12.861 0 0 0 43.311 12.185 L 42.285 12.527 Q 41.795 14.085 41.062 15.156 A 6.874 6.874 0 0 1 40.918 15.359 A 9.332 9.332 0 0 0 40.022 16.832 A 12.366 12.366 0 0 0 39.453 18.191 A 116.603 116.603 0 0 0 37.805 20.925 A 88.586 88.586 0 0 0 36.377 23.464 A 113.173 113.173 0 0 0 34.68 26.729 A 96.097 96.097 0 0 0 33.984 28.152 A 4.292 4.292 0 0 0 33.334 28.994 A 5.08 5.08 0 0 0 33.154 29.324 L 32.422 30.788 L 31.836 31.863 A 1.031 1.031 0 0 0 31.74 31.972 Q 31.671 32.064 31.641 32.156 A 19.492 19.492 0 0 0 31.351 32.762 A 22.496 22.496 0 0 0 31.25 32.986 A 25.846 25.846 0 0 0 30.957 33.672 A 29.524 29.524 0 0 0 30.859 33.913 A 12.314 12.314 0 0 0 30.527 34.378 Q 30.197 34.863 30.029 35.232 A 25.863 25.863 0 0 0 29.743 35.884 A 21.748 21.748 0 0 0 29.59 36.257 L 29.004 37.234 A 14.755 14.755 0 0 0 28.642 37.874 A 18.189 18.189 0 0 0 28.418 38.308 A 259.281 259.281 0 0 0 27.948 39.443 A 210.932 210.932 0 0 0 27.515 40.505 A 42.343 42.343 0 0 1 27.106 41.482 A 31.99 31.99 0 0 1 26.709 42.361 A 19.853 19.853 0 0 0 26.1 43.944 Q 25.774 44.907 25.488 46.023 Q 25.297 46.596 25.06 47.542 A 42.175 42.175 0 0 0 25.049 47.585 A 5.902 5.902 0 0 1 24.802 48.355 A 4.554 4.554 0 0 1 24.512 48.952 Q 23.584 51.345 22.632 53.786 A 2830.937 2830.937 0 0 1 20.703 58.718 A 263.962 263.962 0 0 0 18.799 63.723 A 265.74 265.74 0 0 0 16.992 68.777 Q 18.555 68.777 19.531 68.24 A 3.826 3.826 0 0 1 20.428 67.894 Q 21.176 67.702 22.168 67.702 Q 23.091 68.961 22.572 70.219 A 3.096 3.096 0 0 1 22.363 70.632 A 8.551 8.551 0 0 0 22.015 71.072 Q 21.558 71.694 21.484 72.097 A 2.06 2.06 0 0 1 21.301 72.774 A 1.931 1.931 0 0 1 21.191 72.976 A 15.661 15.661 0 0 0 20.944 73.275 Q 20.606 73.696 20.459 73.952 A 1.924 1.924 0 0 1 20.276 74.245 Q 20.18 74.374 20.056 74.502 A 3.239 3.239 0 0 1 20.02 74.538 A 2.719 2.719 0 0 1 19.367 74.979 Q 18.695 75.315 17.633 75.511 A 12.902 12.902 0 0 1 16.992 75.613 A 14.491 14.491 0 0 0 16.356 75.754 Q 15.607 75.939 15.186 76.15 A 3.399 3.399 0 0 1 14.632 76.402 A 3.947 3.947 0 0 1 14.429 76.467 Q 14.014 76.589 13.574 76.687 A 38.811 38.811 0 0 0 13.013 76.785 A 29.799 29.799 0 0 0 12.5 76.882 A 22.325 22.325 0 0 0 12.036 76.98 A 16.244 16.244 0 0 0 11.621 77.077 A 8.041 8.041 0 0 1 11.392 77.074 Q 11.15 77.067 10.986 77.045 A 1.652 1.652 0 0 1 10.889 77.029 Q 10.556 76.981 10.27 77.165 A 1.065 1.065 0 0 0 10.254 77.175 A 23.403 23.403 0 0 0 9.087 77.202 Q 8.174 77.248 7.471 77.37 A 23.928 23.928 0 0 0 5.273 77.859 A 17.61 17.61 0 0 0 4.676 78.027 Q 4.41 78.107 4.181 78.187 A 7.757 7.757 0 0 0 3.76 78.347 A 4.124 4.124 0 0 1 2.579 78.622 A 4.966 4.966 0 0 1 2.148 78.64 A 1.247 1.247 0 0 1 1.7 78.554 A 1.531 1.531 0 0 1 1.563 78.493 A 1.364 1.364 0 0 0 1.164 78.368 A 1.816 1.816 0 0 0 0.879 78.347 A 3.949 3.949 0 0 1 0.604 78.04 Q 0.469 77.874 0.334 77.676 A 6.7 6.7 0 0 1 0.293 77.615 A 1.749 1.749 0 0 1 0.052 77.09 A 1.572 1.572 0 0 1 0 76.687 A 2.918 2.918 0 0 1 0.142 75.773 A 2.789 2.789 0 0 1 0.147 75.759 A 1.382 1.382 0 0 0 0.226 75.412 Q 0.246 75.215 0.219 74.99 A 2.578 2.578 0 0 0 0.195 74.831 A 2.454 2.454 0 0 1 0.353 73.936 A 2.205 2.205 0 0 1 1.025 73.025 A 8.925 8.925 0 0 0 1.623 72.482 Q 1.902 72.203 2.114 71.932 A 4.346 4.346 0 0 0 2.344 71.609 Q 4.004 71.365 4.932 70.925 A 6.341 6.341 0 0 1 5.577 70.675 A 8.285 8.285 0 0 1 6.152 70.51 A 11.743 11.743 0 0 1 7.138 70.31 A 13.877 13.877 0 0 1 7.617 70.242 A 175.643 175.643 0 0 1 9.058 66.189 A 193.662 193.662 0 0 1 10.645 62.038 A 353.736 353.736 0 0 0 13.677 54.337 A 324.449 324.449 0 0 0 13.867 53.835 Q 14.129 53.162 14.362 52.633 A 18.993 18.993 0 0 1 14.502 52.322 Q 14.703 51.885 14.928 51.333 A 36.527 36.527 0 0 0 15.137 50.808 A 74.231 74.231 0 0 1 16.657 47.018 A 65.154 65.154 0 0 1 17.188 45.827 A 3.518 3.518 0 0 0 17.754 44.99 A 4.907 4.907 0 0 0 18.066 44.167 A 3.297 3.297 0 0 0 18.185 43.841 Q 18.238 43.669 18.282 43.472 A 6.113 6.113 0 0 0 18.311 43.337 A 5.474 5.474 0 0 1 18.398 42.965 Q 18.448 42.782 18.507 42.625 A 2.913 2.913 0 0 1 18.555 42.507 A 8.973 8.973 0 0 1 18.791 42.036 Q 18.92 41.795 19.081 41.522 A 21.872 21.872 0 0 1 19.434 40.945 L 20.41 39.382 A 20.612 20.612 0 0 1 21.118 38.43 Q 21.484 37.966 21.826 37.478 A 31.229 31.229 0 0 0 22.385 36.759 A 27.604 27.604 0 0 0 22.559 36.526 A 48.244 48.244 0 0 0 23.242 35.574 A 32.991 32.991 0 0 1 23.975 33.669 L 24.756 31.814 L 26.367 28.152 Q 26.546 26.988 27.095 25.618 A 16.82 16.82 0 0 1 27.197 25.368 A 131.264 131.264 0 0 1 27.653 24.295 Q 27.834 23.874 28.001 23.495 A 68.539 68.539 0 0 1 28.32 22.781 Q 28.613 22.243 28.857 21.682 Q 29.102 21.12 29.297 20.486 A 8.801 8.801 0 0 1 29.695 19.431 A 8.017 8.017 0 0 1 29.761 19.289 A 10.417 10.417 0 0 1 30.371 18.191 Q 30.469 17.849 30.591 17.532 Q 30.713 17.214 30.859 16.97 A 3.206 3.206 0 0 0 31.014 16.677 A 4.188 4.188 0 0 0 31.128 16.409 Q 31.25 16.091 31.348 15.749 Q 31.684 15.189 31.877 14.714 A 4.653 4.653 0 0 0 31.982 14.431 Q 32.08 14.04 32.227 13.674 A 37.262 37.262 0 0 0 32.51 12.942 A 40.917 40.917 0 0 0 32.52 12.917 A 1.305 1.305 0 0 1 32.343 13.004 Q 32.154 13.082 31.879 13.142 A 4.84 4.84 0 0 1 31.787 13.161 L 31.055 13.308 A 2.971 2.971 0 0 0 30.545 13.508 A 3.491 3.491 0 0 0 30.371 13.601 A 2.087 2.087 0 0 1 30.048 13.748 Q 29.881 13.809 29.684 13.854 A 4.16 4.16 0 0 1 29.492 13.894 A 10.474 10.474 0 0 1 28.644 13.993 Q 27.6 14.069 26.758 13.894 A 1.918 1.918 0 0 1 25.71 13.36 Q 25.274 12.917 25.098 12.136 Q 25.062 11.558 25.266 11.381 A 0.319 0.319 0 0 1 25.439 11.306 A 0.527 0.527 0 0 0 25.74 11.154 Q 25.898 11.004 26.023 10.707 A 2.666 2.666 0 0 0 26.074 10.574 Q 26.007 9.024 26.311 8.009 A 3.445 3.445 0 0 1 26.66 7.204 A 3.391 3.391 0 0 1 27.189 6.529 A 2.333 2.333 0 0 1 28.418 5.886 A 2.257 2.257 0 0 1 28.995 5.714 A 1.998 1.998 0 0 1 29.297 5.691 A 0.867 0.867 0 0 0 29.688 5.593 Q 29.883 5.495 30.078 5.3 Q 30.758 5.1 31.668 4.998 A 14.693 14.693 0 0 1 32.08 4.958 A 245.76 245.76 0 0 0 33.13 4.861 A 12.422 12.422 0 0 0 34.113 4.726 A 13.564 13.564 0 0 0 34.18 4.714 Q 35.254 4.519 36.231 4.372 A 13.306 13.306 0 0 1 37.47 4.243 A 11.177 11.177 0 0 1 38.086 4.226 L 40.039 3.689 Q 40.84 3.466 41.964 3.528 A 9.984 9.984 0 0 1 42.188 3.542 A 5.609 5.609 0 0 1 43.004 3.6 A 4.668 4.668 0 0 1 43.457 3.689 A 4.922 4.922 0 0 0 44.299 3.82 A 5.964 5.964 0 0 0 44.727 3.835 A 8.729 8.729 0 0 1 45.296 3.853 A 7.847 7.847 0 0 1 45.386 3.86 Q 45.703 3.884 46.045 3.933 A 3.65 3.65 0 0 0 46.528 3.965 A 3.38 3.38 0 0 0 47.461 3.835 A 2.408 2.408 0 0 0 48.449 3.526 A 2.869 2.869 0 0 0 48.584 3.445 A 1.427 1.427 0 0 1 49.015 3.29 Q 49.31 3.236 49.619 3.32 A 1.644 1.644 0 0 1 49.707 3.347 A 222.431 222.431 0 0 1 51.709 2.956 A 11.197 11.197 0 0 1 53.809 2.761 A 20.845 20.845 0 0 0 53.98 2.768 Q 54.883 2.802 54.883 2.712 A 0.098 0.098 0 0 1 54.892 2.668 Q 54.93 2.593 55.124 2.647 A 1.164 1.164 0 0 1 55.176 2.663 Z" id="0" vector-effect="non-scaling-stroke"/><path d="M 88.77 53.64 L 89.209 53.249 A 2.484 2.484 0 0 1 89.341 53.127 A 2.991 2.991 0 0 1 89.429 53.054 A 2.856 2.856 0 0 0 89.572 52.932 A 2.371 2.371 0 0 0 89.648 52.859 A 1.898 1.898 0 0 0 90.088 52.175 A 4.066 4.066 0 0 0 90.259 51.785 A 4.066 4.066 0 0 1 90.43 51.394 A 58.407 58.407 0 0 1 91.061 50.364 Q 91.313 49.963 91.546 49.611 A 28.76 28.76 0 0 1 91.992 48.952 Q 94.141 47.781 96.387 46.902 Q 98.633 46.023 100.684 46.12 Q 100.762 46.199 101.093 46.404 A 15.304 15.304 0 0 0 101.27 46.511 A 1.506 1.506 0 0 1 101.856 47.195 Q 102.272 47.861 102.12 48.742 A 3.334 3.334 0 0 1 102.051 49.05 A 3.787 3.787 0 0 1 101.803 49.719 Q 101.523 50.292 101.074 50.613 A 19.994 19.994 0 0 0 100.352 53.315 A 26.26 26.26 0 0 0 100 55.691 A 41.02 41.02 0 0 0 99.794 58.784 Q 99.78 59.284 99.78 59.774 A 33.51 33.51 0 0 0 99.805 61.062 Q 99.561 61.355 99.658 61.892 A 1.394 1.394 0 0 1 99.665 61.994 Q 99.669 62.15 99.634 62.278 A 0.667 0.667 0 0 1 99.414 62.624 A 9.737 9.737 0 0 0 100.044 63.699 A 11.546 11.546 0 0 0 100.391 64.187 A 1.896 1.896 0 0 0 101.782 64.955 A 2.713 2.713 0 0 0 102.051 64.968 Q 103.223 64.675 103.516 64.675 A 1.009 1.009 0 0 0 103.661 64.664 Q 103.812 64.642 104.004 64.577 Q 104.44 64.316 104.604 64.171 A 0.802 0.802 0 0 0 104.639 64.138 A 2.004 2.004 0 0 1 104.8 63.993 Q 104.984 63.844 105.148 63.803 A 0.558 0.558 0 0 1 105.176 63.796 A 15.464 15.464 0 0 1 105.279 63.627 Q 105.433 63.377 105.517 63.269 A 0.626 0.626 0 0 1 105.566 63.21 Q 105.663 63.113 105.953 62.727 A 23.969 23.969 0 0 0 105.957 62.722 A 39.984 39.984 0 0 0 107.176 61.152 A 32.308 32.308 0 0 0 107.861 60.183 L 109.668 57.546 A 34.995 34.995 0 0 1 109.955 57.076 A 28.314 28.314 0 0 1 110.23 56.643 A 19.421 19.421 0 0 0 110.465 56.27 Q 110.574 56.093 110.667 55.932 A 11.669 11.669 0 0 0 110.693 55.886 A 4.004 4.004 0 0 0 110.917 55.533 Q 111.024 55.344 111.126 55.124 A 6.792 6.792 0 0 0 111.157 55.056 A 18.181 18.181 0 0 0 111.369 54.566 Q 111.476 54.307 111.589 54.017 A 30.371 30.371 0 0 0 111.621 53.933 L 112.061 52.908 A 11.034 11.034 0 0 0 112.143 52.709 Q 112.28 52.37 112.5 51.785 Q 112.744 51.199 112.5 50.173 Q 112.305 49.148 112.5 48.66 A 3.141 3.141 0 0 0 112.758 48.272 Q 112.988 47.857 112.988 47.488 A 38.082 38.082 0 0 0 113.149 47.222 Q 113.561 46.533 113.648 46.306 A 0.287 0.287 0 0 0 113.672 46.218 Q 113.672 46.133 113.746 45.901 A 5.357 5.357 0 0 1 113.77 45.827 A 4.968 4.968 0 0 0 114.014 45.564 A 5.982 5.982 0 0 0 114.16 45.388 Q 114.351 45.15 114.355 44.772 A 1.54 1.54 0 0 0 114.356 44.753 A 10.828 10.828 0 0 1 117.075 42.79 A 13.276 13.276 0 0 1 118.359 42.214 A 17.871 17.871 0 0 0 120.521 41.698 A 15.248 15.248 0 0 0 121.436 41.384 Q 122.754 40.896 123.535 41.726 A 0.557 0.557 0 0 0 123.479 41.805 Q 123.36 42.014 123.552 42.197 A 0.747 0.747 0 0 0 123.633 42.263 A 0.692 0.692 0 0 1 123.817 42.438 Q 123.926 42.592 123.926 42.8 A 2.761 2.761 0 0 1 123.95 42.955 Q 124.002 43.374 123.877 43.581 A 1.411 1.411 0 0 0 123.759 43.911 A 1.196 1.196 0 0 0 123.731 44.167 Q 123.159 45.215 123.052 45.241 A 0.022 0.022 0 0 1 123.047 45.242 Q 122.949 45.242 122.852 45.339 A 1.436 1.436 0 0 0 122.775 45.489 Q 122.662 45.742 122.523 46.221 A 13.269 13.269 0 0 0 122.51 46.267 A 3.836 3.836 0 0 1 122.449 46.523 Q 122.413 46.655 122.365 46.799 A 6.559 6.559 0 0 1 122.363 46.804 L 122.168 47.39 A 40.433 40.433 0 0 1 121.851 48.208 A 53.557 53.557 0 0 1 121.484 49.099 A 10.835 10.835 0 0 1 120.508 50.906 Q 120.045 52.015 120.328 52.381 A 0.401 0.401 0 0 0 120.361 52.419 A 1.128 1.128 0 0 1 120.703 53.234 A 1.383 1.383 0 0 1 120.703 53.249 A 1.363 1.363 0 0 0 121.043 53.46 A 1.178 1.178 0 0 0 121.338 53.542 A 1.22 1.22 0 0 1 121.861 53.751 A 1.508 1.508 0 0 1 121.973 53.835 A 5.699 5.699 0 0 1 122.153 53.976 Q 122.337 54.126 122.445 54.245 A 1.126 1.126 0 0 1 122.51 54.324 A 1.013 1.013 0 0 0 122.665 54.476 Q 122.872 54.644 123.242 54.812 A 2.727 2.727 0 0 0 123.635 54.871 Q 123.722 54.877 123.806 54.877 A 2.142 2.142 0 0 0 124.072 54.861 Q 124.414 54.812 125.195 54.91 Q 125.968 55.006 126.215 54.912 A 0.375 0.375 0 0 0 126.221 54.91 A 1.194 1.194 0 0 0 126.358 54.842 Q 126.587 54.714 126.953 54.421 Q 127.866 53.945 128.166 53.662 A 0.722 0.722 0 0 0 128.272 53.542 A 2.753 2.753 0 0 1 128.377 53.411 Q 128.491 53.277 128.656 53.11 A 9.354 9.354 0 0 1 128.711 53.054 A 2.259 2.259 0 0 1 129.639 52.859 Q 130.118 52.859 130.456 52.67 A 1.283 1.283 0 0 0 130.469 52.663 A 31.144 31.144 0 0 0 131.53 52.254 Q 132.161 51.998 132.861 51.687 A 36.748 36.748 0 0 0 134.267 51.028 A 28.683 28.683 0 0 0 135.254 50.515 A 27.64 27.64 0 0 0 135.959 50.222 A 24.146 24.146 0 0 0 136.182 50.124 A 1.172 1.172 0 0 0 136.771 49.544 A 1.56 1.56 0 0 0 136.816 49.441 A 21.649 21.649 0 0 0 136.991 49.396 Q 137.206 49.341 137.318 49.306 A 1.99 1.99 0 0 0 137.354 49.294 Q 137.449 49.247 137.959 49.245 A 11.411 11.411 0 0 1 137.988 49.245 A 5.818 5.818 0 0 0 138.141 49.583 Q 138.3 49.906 138.46 50.104 A 1.6 1.6 0 0 0 138.477 50.124 A 0.479 0.479 0 0 1 138.564 50.309 Q 138.638 50.646 138.184 51.101 Q 137.061 52.224 135.596 53.054 A 11.965 11.965 0 0 0 133.008 55.105 A 17.984 17.984 0 0 0 131.918 55.601 A 16.516 16.516 0 0 0 131.885 55.618 Q 131.348 55.886 130.859 56.228 Q 130.028 56.797 128.804 57.17 A 11.319 11.319 0 0 1 128.516 57.253 A 298.159 298.159 0 0 1 127.994 57.566 Q 127.788 57.689 127.601 57.8 A 160.603 160.603 0 0 1 127.246 58.01 Q 126.709 58.327 126.367 58.572 Q 125.741 59.019 125.279 59.097 A 1.227 1.227 0 0 1 125.195 59.109 A 57.529 57.529 0 0 0 123.918 59.122 A 50.483 50.483 0 0 0 123.511 59.133 Q 122.705 59.158 121.973 59.206 Q 121.436 59.304 121.143 59.109 Q 120.947 59.011 120.215 58.718 A 6.639 6.639 0 0 1 119.458 58.476 Q 118.698 58.178 118.262 57.742 A 18.683 18.683 0 0 0 117.676 57.18 Q 117.383 56.911 117.09 56.667 A 18.527 18.527 0 0 0 116.431 57.79 A 10.393 10.393 0 0 0 115.869 59.011 A 8.7 8.7 0 0 1 115.23 60.25 A 6.84 6.84 0 0 1 114.551 61.16 Q 114.327 61.864 114.06 62.359 A 3.656 3.656 0 0 1 113.77 62.82 Q 113.415 63.281 113.112 64 A 9.626 9.626 0 0 0 112.891 64.577 A 11.857 11.857 0 0 0 111.987 65.701 A 9.613 9.613 0 0 0 111.284 66.864 A 10.609 10.609 0 0 0 111.231 66.97 A 7.521 7.521 0 0 1 110.001 68.757 A 6.872 6.872 0 0 1 109.473 69.265 A 17.812 17.812 0 0 1 106 72.581 A 22.437 22.437 0 0 1 103.711 74.05 A 1.468 1.468 0 0 0 103.277 73.985 Q 102.845 73.985 102.371 74.231 A 2.891 2.891 0 0 0 102.344 74.245 Q 101.953 74.469 101.626 74.469 A 0.867 0.867 0 0 1 101.172 74.343 Q 99.536 74.733 98.801 74.314 A 1.105 1.105 0 0 1 98.486 74.05 A 4.828 4.828 0 0 0 98.003 73.533 Q 97.595 73.159 97.168 72.976 Q 96.299 71.576 96.146 70.558 A 3.239 3.239 0 0 1 96.143 70.535 A 18.39 18.39 0 0 0 95.872 69.078 A 21.817 21.817 0 0 0 95.703 68.386 A 7.08 7.08 0 0 0 95.497 67.839 A 5.194 5.194 0 0 0 95.264 67.361 A 1.789 1.789 0 0 1 95.107 66.626 A 1.942 1.942 0 0 1 95.117 66.433 Q 94.86 65.329 94.63 64.696 A 4.725 4.725 0 0 0 94.482 64.333 Q 94.287 63.943 94.165 63.454 Q 94.043 62.966 93.945 62.429 Q 93.897 61.99 93.872 61.55 A 5.281 5.281 0 0 1 93.864 61.257 A 5.302 5.302 0 0 1 93.897 60.671 A 4.106 4.106 0 0 0 93.903 60.43 Q 93.903 59.718 93.668 58.871 A 8.184 8.184 0 0 0 93.652 58.816 A 5.85 5.85 0 0 0 92.867 58.998 Q 91.993 59.272 91.609 59.782 A 1.464 1.464 0 0 0 91.455 60.036 A 3.586 3.586 0 0 1 90.897 60.893 A 3.04 3.04 0 0 1 90.234 61.452 A 3.846 3.846 0 0 1 89.82 62.33 A 3.061 3.061 0 0 1 89.16 63.064 Q 88.525 63.552 87.988 64.675 A 6.697 6.697 0 0 0 86.084 66.238 A 14.628 14.628 0 0 1 84.18 68.093 Q 83.301 68.63 82.861 69.07 A 3.052 3.052 0 0 1 82.41 69.445 A 2.48 2.48 0 0 1 82.031 69.656 A 3.78 3.78 0 0 1 81.576 70.261 A 4.724 4.724 0 0 1 81.25 70.583 Q 80.988 70.808 80.555 71.232 A 38.907 38.907 0 0 0 80.273 71.511 Q 79.689 72.096 79.436 72.39 A 4.178 4.178 0 0 0 79.395 72.439 Q 78.955 72.927 78.516 73.269 Q 78.125 73.757 77.783 74.001 A 27.441 27.441 0 0 1 77.454 74.233 A 21.069 21.069 0 0 1 77.148 74.441 A 5.081 5.081 0 0 0 76.923 74.619 Q 76.697 74.81 76.563 74.978 A 2.979 2.979 0 0 1 76.439 75.132 Q 76.227 75.379 76.074 75.417 A 48.079 48.079 0 0 1 75.504 75.778 Q 75.243 75.941 75.008 76.082 A 27.114 27.114 0 0 1 74.854 76.174 Q 74.484 76.392 74.184 76.576 A 32.104 32.104 0 0 0 73.926 76.736 A 2.45 2.45 0 0 1 73.598 76.891 Q 73.314 76.999 73.059 76.999 A 1.103 1.103 0 0 1 72.559 76.882 Q 71.837 77.063 71.198 76.701 A 2.173 2.173 0 0 1 71.094 76.638 A 101.629 101.629 0 0 1 70.435 76.211 A 81.997 81.997 0 0 1 69.824 75.808 A 23.152 23.152 0 0 0 69.336 75.149 A 20.028 20.028 0 0 0 68.848 74.538 A 3.296 3.296 0 0 1 68.436 73.885 Q 68.288 73.581 68.179 73.22 A 5.484 5.484 0 0 1 68.164 73.171 A 9.662 9.662 0 0 1 67.503 72.157 A 12.143 12.143 0 0 1 67.09 71.365 Q 66.602 70.339 66.211 69.265 A 29.414 29.414 0 0 0 66.174 68.331 Q 66.122 67.395 66.012 66.773 A 5.427 5.427 0 0 0 65.918 66.335 A 4.793 4.793 0 0 1 65.813 65.672 Q 65.759 65.084 65.82 64.382 A 3.88 3.88 0 0 1 66.505 62.351 A 4.657 4.657 0 0 1 66.553 62.283 A 9.732 9.732 0 0 0 67.151 61.318 A 7.333 7.333 0 0 0 67.578 60.378 A 3.521 3.521 0 0 1 67.573 60.233 Q 67.56 59.517 67.871 59.206 A 1.022 1.022 0 0 0 68.184 58.463 Q 68.184 58.351 68.164 58.23 Q 68.994 55.984 70.02 54.665 Q 70.996 53.396 71.484 51.785 A 14.358 14.358 0 0 1 72.034 50.234 A 10.687 10.687 0 0 1 72.705 48.904 A 12.531 12.531 0 0 0 73.35 47.627 Q 73.637 46.973 73.892 46.221 A 20.534 20.534 0 0 0 73.926 46.12 Q 74.262 45.485 74.456 44.964 A 5.739 5.739 0 0 0 74.561 44.656 A 4.498 4.498 0 0 1 74.819 43.947 Q 74.972 43.612 75.189 43.257 A 8.027 8.027 0 0 1 75.293 43.093 A 14.185 14.185 0 0 0 75.473 42.91 Q 75.72 42.654 75.83 42.507 A 1.262 1.262 0 0 1 75.932 42.39 Q 76.049 42.268 76.24 42.117 A 6.08 6.08 0 0 1 76.367 42.019 Q 77.166 41.784 77.694 41.368 A 2.886 2.886 0 0 0 77.734 41.335 A 3.296 3.296 0 0 1 78.388 40.923 Q 78.692 40.776 79.053 40.666 A 5.484 5.484 0 0 1 79.102 40.652 A 3.904 3.904 0 0 1 79.745 40.494 A 3.167 3.167 0 0 1 80.225 40.456 A 1.504 1.504 0 0 0 80.691 40.378 Q 80.916 40.305 81.152 40.163 A 18.39 18.39 0 0 1 81.651 39.854 Q 82.369 39.427 82.752 39.312 A 1.22 1.22 0 0 1 82.861 39.285 A 2.247 2.247 0 0 0 83.175 39.22 Q 83.332 39.177 83.506 39.11 A 5.103 5.103 0 0 0 83.789 38.992 A 6.095 6.095 0 0 1 84.397 39.587 A 4.573 4.573 0 0 1 84.863 40.212 Q 85.254 40.847 85.059 41.824 A 7.54 7.54 0 0 0 84.841 42.05 Q 84.415 42.513 84.375 42.751 A 1.22 1.22 0 0 1 84.167 43.274 A 1.508 1.508 0 0 1 84.082 43.386 A 2.961 2.961 0 0 1 83.496 44.07 A 2.961 2.961 0 0 0 82.91 44.753 A 7.788 7.788 0 0 0 82.819 44.942 A 6.12 6.12 0 0 0 82.739 45.119 A 1.973 1.973 0 0 1 82.574 45.428 A 1.822 1.822 0 0 1 82.568 45.437 A 7.338 7.338 0 0 1 82.474 45.62 Q 82.336 45.876 82.227 46.023 L 81.787 46.413 A 8.118 8.118 0 0 0 81.618 46.587 Q 81.466 46.748 81.37 46.873 A 2.188 2.188 0 0 0 81.348 46.902 Q 81.166 47.083 81.093 47.265 A 0.697 0.697 0 0 0 81.055 47.39 A 1.044 1.044 0 0 1 80.949 47.699 Q 80.877 47.837 80.762 47.976 A 2.441 2.441 0 0 1 80.481 48.319 Q 80.326 48.478 80.127 48.637 A 5.343 5.343 0 0 1 79.834 48.855 A 3.327 3.327 0 0 0 79.111 49.622 A 3.189 3.189 0 0 0 79.102 49.636 A 5.157 5.157 0 0 0 79.025 49.889 Q 78.944 50.182 78.851 50.614 A 28.219 28.219 0 0 0 78.76 51.052 A 7.508 7.508 0 0 1 78.648 51.703 A 8.471 8.471 0 0 1 78.613 51.858 A 60.05 60.05 0 0 1 78.43 52.614 A 55.159 55.159 0 0 1 78.418 52.663 A 11.738 11.738 0 0 1 78.107 53.517 Q 77.916 53.987 77.666 54.509 A 24.013 24.013 0 0 1 77.344 55.154 A 38.733 38.733 0 0 0 76.959 55.92 Q 76.428 57.009 76.172 57.742 A 16.729 16.729 0 0 0 76.001 58.62 Q 75.928 59.06 75.83 59.451 A 7.508 7.508 0 0 1 75.719 60.101 A 8.471 8.471 0 0 1 75.684 60.256 A 60.05 60.05 0 0 1 75.501 61.013 A 55.159 55.159 0 0 1 75.488 61.062 A 2.381 2.381 0 0 1 75.348 61.47 A 1.948 1.948 0 0 1 75.195 61.745 A 2.675 2.675 0 0 0 74.998 62.093 A 2.2 2.2 0 0 0 74.902 62.331 A 9.403 9.403 0 0 0 74.384 64.873 A 10.744 10.744 0 0 0 74.365 65.261 A 3.942 3.942 0 0 0 74.363 65.384 Q 74.363 66.277 74.786 66.763 A 1.562 1.562 0 0 0 75.488 67.214 A 10.517 10.517 0 0 0 77.832 65.847 Q 78.613 64.773 79.492 63.796 A 51.254 51.254 0 0 1 81.348 61.843 L 81.934 61.257 Q 82.227 60.964 82.471 60.671 A 8.255 8.255 0 0 1 82.769 60.334 A 10.534 10.534 0 0 1 83.032 60.061 L 83.691 59.402 A 5.685 5.685 0 0 1 83.807 59.289 Q 83.932 59.171 84.025 59.101 A 1.168 1.168 0 0 1 84.082 59.06 Q 84.229 58.962 84.473 58.62 A 10.664 10.664 0 0 0 84.961 57.949 A 8.047 8.047 0 0 0 85.352 57.302 Q 85.612 56.856 86.041 56.326 A 13.361 13.361 0 0 1 86.328 55.984 A 3.618 3.618 0 0 0 86.884 55.61 Q 87.14 55.403 87.397 55.131 A 6.83 6.83 0 0 0 87.598 54.91 Q 87.891 54.568 88.184 54.25 A 21.17 21.17 0 0 1 88.77 53.64 Z" id="2" vector-effect="non-scaling-stroke"/><path d="M 160.352 46.999 L 160.254 47.781 A 0.618 0.618 0 0 1 160.274 47.886 Q 160.311 48.239 160.059 48.952 A 2.726 2.726 0 0 0 159.637 49.633 A 2.356 2.356 0 0 0 159.473 50.222 L 159.131 50.906 A 2.109 2.109 0 0 0 159.03 51.147 Q 158.949 51.378 158.887 51.687 Q 158.691 52.273 158.74 53.054 A 4.11 4.11 0 0 1 158.773 53.564 A 3.71 3.71 0 0 1 158.765 53.811 A 9.563 9.563 0 0 1 158.703 54.433 A 8.727 8.727 0 0 1 158.691 54.519 A 25.118 25.118 0 0 0 158.411 56.49 A 23.032 23.032 0 0 0 158.398 56.618 A 491.517 491.517 0 0 0 158.203 58.718 Q 158.203 59.641 158.059 60.781 A 23.913 23.913 0 0 1 158.008 61.16 A 79.089 79.089 0 0 1 157.825 62.377 Q 157.734 62.949 157.643 63.457 A 46.696 46.696 0 0 1 157.617 63.601 Q 158.057 64.382 158.106 65.066 A 1.705 1.705 0 0 0 158.572 66.127 A 2.362 2.362 0 0 0 158.789 66.335 A 14.176 14.176 0 0 0 160.04 66.093 Q 160.657 65.943 161.17 65.747 A 6.282 6.282 0 0 0 161.914 65.408 Q 163.086 64.773 164.16 63.601 A 8.734 8.734 0 0 0 164.657 63.366 Q 164.888 63.247 165.078 63.128 A 3.679 3.679 0 0 0 165.381 62.917 A 4.694 4.694 0 0 1 165.658 62.694 Q 165.978 62.455 166.438 62.176 A 15.396 15.396 0 0 1 166.504 62.136 L 167.285 61.355 A 46.799 46.799 0 0 0 167.689 61.134 Q 168.375 60.753 168.558 60.612 A 0.482 0.482 0 0 0 168.604 60.574 A 0.909 0.909 0 0 1 168.687 60.5 Q 168.765 60.439 168.872 60.378 A 7.137 7.137 0 0 1 169.119 60.244 A 8.331 8.331 0 0 1 169.238 60.183 Q 170.898 59.109 171.777 57.937 A 8.025 8.025 0 0 0 172.515 57.272 A 6.327 6.327 0 0 0 172.998 56.716 Q 173.346 56.238 174.276 55.798 A 8.153 8.153 0 0 1 174.512 55.691 A 6.807 6.807 0 0 1 175.783 54.475 A 6.344 6.344 0 0 1 175.928 54.372 A 6.712 6.712 0 0 0 177.264 53.151 A 7.504 7.504 0 0 0 177.344 53.054 Q 177.881 53.054 178.125 53.249 A 5.148 5.148 0 0 0 178.338 53.384 A 6.08 6.08 0 0 0 178.442 53.445 A 7.137 7.137 0 0 0 178.689 53.579 A 8.331 8.331 0 0 0 178.809 53.64 A 2.7 2.7 0 0 1 178.984 54.595 A 2.858 2.858 0 0 1 178.906 55.251 A 4.255 4.255 0 0 1 178.223 56.765 Q 177.734 57.4 177.734 57.546 Q 177.734 57.644 177.637 57.742 A 6.16 6.16 0 0 1 177.352 58.05 Q 177.152 58.254 176.904 58.474 A 4.23 4.23 0 0 0 176.434 58.897 A 3.479 3.479 0 0 0 176.172 59.206 Q 175.684 60.085 175.391 60.085 A 0.722 0.722 0 0 0 175.134 60.13 A 0.649 0.649 0 0 0 174.902 60.281 Q 174.093 60.775 173.739 61.021 A 5.647 5.647 0 0 0 173.682 61.062 A 4.694 4.694 0 0 1 173.404 61.285 Q 173.085 61.524 172.625 61.803 A 15.396 15.396 0 0 1 172.559 61.843 A 20.348 20.348 0 0 0 172.147 62.064 Q 171.592 62.371 171.367 62.555 A 1.037 1.037 0 0 0 171.289 62.624 Q 171.101 62.812 170.971 62.884 A 0.435 0.435 0 0 1 170.898 62.917 A 20.951 20.951 0 0 1 169.775 64.091 Q 169.192 64.652 168.622 65.1 A 12.98 12.98 0 0 1 168.604 65.115 Q 167.823 65.709 166.959 66.671 A 20.623 20.623 0 0 0 166.406 67.312 L 165.625 67.898 A 2.464 2.464 0 0 0 165.175 68.34 A 3.149 3.149 0 0 0 164.941 68.679 A 9.961 9.961 0 0 0 164.284 69.155 Q 163.961 69.411 163.703 69.666 A 5.373 5.373 0 0 0 163.525 69.851 Q 163.064 70.354 162.494 71.002 A 111.589 111.589 0 0 0 162.305 71.218 A 5.97 5.97 0 0 0 161.773 71.521 Q 161.508 71.69 161.226 71.902 A 10.861 10.861 0 0 0 161.035 72.048 A 11.78 11.78 0 0 1 160.464 72.46 Q 160.19 72.645 159.942 72.785 A 5.168 5.168 0 0 1 159.57 72.976 A 5.038 5.038 0 0 1 159.427 73.058 Q 159.206 73.181 158.831 73.37 A 36.755 36.755 0 0 1 158.74 73.415 Q 158.252 73.66 157.813 73.66 A 4.301 4.301 0 0 1 157.075 73.725 A 3.93 3.93 0 0 1 155.664 73.464 A 20.339 20.339 0 0 0 153.809 72.878 Q 153.418 72.292 152.832 71.902 A 6.499 6.499 0 0 1 151.711 69.855 A 7.706 7.706 0 0 1 151.563 69.363 A 100.125 100.125 0 0 1 151.172 67.849 A 119.459 119.459 0 0 1 150.781 66.238 A 7.929 7.929 0 0 0 149.908 66.908 A 6.233 6.233 0 0 0 149.316 67.507 A 3.61 3.61 0 0 1 148.692 68.111 Q 148.366 68.361 147.953 68.582 A 7.186 7.186 0 0 1 147.559 68.777 A 72.211 72.211 0 0 1 145.557 70.608 Q 144.531 71.511 143.408 72.341 A 142.832 142.832 0 0 0 141.351 73.962 A 156.288 156.288 0 0 0 141.211 74.075 Q 140.088 74.978 138.965 75.906 A 6.978 6.978 0 0 1 138.958 75.913 Q 138.211 76.657 137.913 76.505 A 0.225 0.225 0 0 1 137.891 76.492 A 2.023 2.023 0 0 1 136.883 77.144 Q 136.073 77.39 134.845 77.189 A 8.443 8.443 0 0 1 134.766 77.175 A 10.005 10.005 0 0 0 133.769 76.746 A 12.631 12.631 0 0 0 133.008 76.492 Q 132.324 76.296 131.445 75.906 Q 129.785 75.613 128.662 74.441 A 10.918 10.918 0 0 1 126.959 72.091 A 12.445 12.445 0 0 1 126.758 71.706 Q 126.465 70.876 126.318 70.242 A 6.575 6.575 0 0 0 126.248 69.842 A 8.278 8.278 0 0 0 126.172 69.509 A 29.864 29.864 0 0 1 126.074 69.106 A 35.301 35.301 0 0 1 125.977 68.679 Q 125.943 68.107 125.817 67.698 A 2.208 2.208 0 0 0 125.684 67.361 Q 125.586 67.092 125.586 66.836 A 1.336 1.336 0 0 1 125.684 66.335 A 0.594 0.594 0 0 1 125.555 65.995 Q 125.546 65.86 125.586 65.701 Q 125.684 65.212 125.684 64.968 Q 125.612 63.966 125.776 62.86 A 12.303 12.303 0 0 1 125.928 62.038 A 14.956 14.956 0 0 1 126.42 60.286 A 12.23 12.23 0 0 1 126.856 59.206 A 4.483 4.483 0 0 1 127.222 58.688 A 6.002 6.002 0 0 1 127.637 58.23 A 1.607 1.607 0 0 0 127.798 58.001 Q 127.9 57.822 127.93 57.644 Q 127.979 57.4 128.223 57.156 A 4.458 4.458 0 0 1 128.528 56.826 A 5.721 5.721 0 0 1 128.809 56.57 Q 129.258 56.21 129.459 56.016 A 2.552 2.552 0 0 0 129.492 55.984 Q 129.736 55.642 130.005 55.325 A 3.336 3.336 0 0 1 130.615 54.763 A 5.032 5.032 0 0 0 131.25 54.226 L 131.836 53.64 A 3.863 3.863 0 0 0 132.133 53.309 A 2.831 2.831 0 0 0 132.373 52.956 Q 132.617 52.566 133.106 52.37 A 5.171 5.171 0 0 1 133.521 51.748 A 3.926 3.926 0 0 1 133.984 51.247 A 33.436 33.436 0 0 1 134.497 50.796 A 41.822 41.822 0 0 1 135.059 50.32 A 14.803 14.803 0 0 1 138.416 47.358 A 17.187 17.187 0 0 1 139.16 46.902 Q 141.65 45.486 143.555 43.777 Q 144.238 43.484 144.727 43.093 L 145.703 42.312 A 3.516 3.516 0 0 1 146.419 41.817 Q 147.329 41.35 148.34 41.628 L 150.879 42.312 Q 151.856 43.191 152.783 44.07 A 10.293 10.293 0 0 1 154.395 46.023 A 8.654 8.654 0 0 1 154.841 45.971 A 10.437 10.437 0 0 1 155.127 45.95 A 4.262 4.262 0 0 1 155.393 45.941 Q 155.596 45.941 155.812 45.96 A 5.619 5.619 0 0 1 155.957 45.974 Q 156.659 46.052 157.424 45.912 A 6.248 6.248 0 0 0 157.813 45.827 A 1.247 1.247 0 0 0 158.261 45.742 A 1.531 1.531 0 0 0 158.398 45.681 Q 158.675 45.543 158.865 45.535 A 0.543 0.543 0 0 1 158.887 45.535 A 3.939 3.939 0 0 1 159.458 45.771 Q 159.744 45.92 159.939 46.1 A 1.185 1.185 0 0 1 160.352 46.999 Z M 134.375 62.624 L 134.375 63.601 A 2.783 2.783 0 0 0 134.381 63.772 Q 134.399 64.063 134.472 64.572 A 23.069 23.069 0 0 0 134.473 64.577 A 8.134 8.134 0 0 1 134.766 66.726 A 10.56 10.56 0 0 0 134.786 67.36 Q 134.821 67.928 134.912 68.63 A 3.809 3.809 0 0 0 135.021 69.175 Q 135.214 69.857 135.645 70.144 A 1.956 1.956 0 0 0 135.985 70.312 Q 136.438 70.482 136.865 70.339 Q 137.518 70.106 137.948 70.051 A 2.436 2.436 0 0 1 137.988 70.046 A 81.946 81.946 0 0 0 144.434 64.529 Q 147.461 61.648 149.805 58.035 A 34.187 34.187 0 0 1 149.693 55.252 A 37.317 37.317 0 0 1 149.756 53.103 Q 149.873 51.196 149.524 49.507 A 11.637 11.637 0 0 0 149.316 48.66 Q 148.957 48.435 148.474 48.5 A 1.838 1.838 0 0 0 148.389 48.513 Q 147.998 48.562 147.461 48.464 A 25.538 25.538 0 0 0 143.221 51.022 A 23.446 23.446 0 0 0 142.676 51.443 Q 140.527 53.152 138.574 55.105 A 6.936 6.936 0 0 1 138.062 55.569 A 6.936 6.936 0 0 0 137.549 56.033 A 5.715 5.715 0 0 0 137.19 56.346 A 6.636 6.636 0 0 0 137.061 56.472 A 6.2 6.2 0 0 0 136.735 56.823 A 5.344 5.344 0 0 0 136.621 56.96 Q 136.231 57.449 135.889 58.132 L 135.254 59.402 A 7.867 7.867 0 0 1 135.12 59.659 A 6.725 6.725 0 0 1 135.059 59.768 A 1.77 1.77 0 0 1 134.985 59.886 Q 134.947 59.942 134.909 59.986 A 0.841 0.841 0 0 1 134.863 60.036 A 1.316 1.316 0 0 0 134.772 60.139 Q 134.727 60.194 134.682 60.26 A 2.236 2.236 0 0 0 134.668 60.281 L 134.473 60.574 A 2.15 2.15 0 0 0 134.326 61.158 Q 134.307 61.354 134.326 61.55 A 3.382 3.382 0 0 1 134.348 61.745 Q 134.366 61.969 134.372 62.295 A 17.996 17.996 0 0 1 134.375 62.624 Z" id="3" vector-effect="non-scaling-stroke"/><path d="M 180.762 59.304 L 181.348 59.792 Q 181.592 60.183 181.201 60.867 A 6.771 6.771 0 0 0 181.027 61.191 Q 180.947 61.35 180.886 61.497 A 4.261 4.261 0 0 0 180.884 61.501 Q 180.762 61.794 180.664 62.038 A 12.516 12.516 0 0 0 180.713 62.228 A 10.383 10.383 0 0 0 180.762 62.405 Q 180.808 62.568 180.855 62.664 A 0.758 0.758 0 0 0 180.859 62.673 A 0.631 0.631 0 0 1 180.892 62.874 Q 180.892 63.08 180.762 63.308 Q 181.262 63.701 181.5 64.12 A 1.739 1.739 0 0 1 181.641 64.431 A 4.436 4.436 0 0 0 181.934 65.151 A 3.445 3.445 0 0 0 182.324 65.749 A 13.493 13.493 0 0 0 182.71 66.151 Q 182.886 66.326 183.045 66.47 A 5.64 5.64 0 0 0 183.35 66.726 A 4.748 4.748 0 0 1 184.034 67.259 A 5.821 5.821 0 0 1 184.375 67.605 Q 184.9 67.318 185.145 67.312 A 0.423 0.423 0 0 1 185.156 67.312 Q 185.43 67.312 185.767 67.186 A 3 3 0 0 0 185.938 67.117 A 7.366 7.366 0 0 0 186.673 65.938 Q 187.028 65.238 187.305 64.382 A 16.244 16.244 0 0 0 187.402 63.967 A 22.325 22.325 0 0 0 187.5 63.503 Q 187.598 63.015 187.598 62.624 A 5.343 5.343 0 0 0 187.326 61.165 A 7.319 7.319 0 0 0 186.816 59.988 Q 186.133 58.666 185.789 57.514 A 10.165 10.165 0 0 1 185.742 57.351 A 2.923 2.923 0 0 1 185.458 56.092 A 3.195 3.195 0 0 1 185.498 55.593 A 6.418 6.418 0 0 0 185.549 55.116 Q 185.581 54.638 185.527 54.234 A 3.148 3.148 0 0 0 185.449 53.835 Q 185.407 53.415 185.22 53.139 A 1.077 1.077 0 0 0 185.156 53.054 A 5.148 5.148 0 0 1 185.022 52.841 A 6.08 6.08 0 0 1 184.961 52.737 A 7.137 7.137 0 0 1 184.827 52.49 A 8.331 8.331 0 0 1 184.766 52.37 A 6.011 6.011 0 0 1 184.61 51.082 Q 184.607 50.85 184.619 50.613 A 2.964 2.964 0 0 0 184.634 50.337 Q 184.639 49.537 184.18 48.952 Q 183.614 49.518 182.41 51.063 A 80.282 80.282 0 0 0 182.324 51.174 A 1936.94 1936.94 0 0 0 179.81 54.421 A 68.109 68.109 0 0 1 179.265 55.118 Q 178.499 56.083 178.089 56.507 A 5.1 5.1 0 0 1 178.027 56.57 Q 177.783 56.911 177.515 57.229 A 4.723 4.723 0 0 1 177.098 57.664 A 4.163 4.163 0 0 1 176.953 57.79 A 4.453 4.453 0 0 0 176.502 58.226 A 5.092 5.092 0 0 0 176.392 58.352 Q 176.123 58.669 175.879 59.011 A 892.362 892.362 0 0 1 175.148 59.924 Q 174.152 61.165 173.587 61.858 A 121.75 121.75 0 0 1 173.56 61.892 A 59.264 59.264 0 0 0 172.07 63.796 L 169.727 66.921 A 39.932 39.932 0 0 1 169.411 67.373 Q 168.923 68.061 168.096 69.188 A 291 291 0 0 1 167.896 69.46 A 1397.901 1397.901 0 0 0 166.01 72.028 A 1249.711 1249.711 0 0 0 165.405 72.854 A 53.517 53.517 0 0 0 164.927 73.517 Q 164.303 74.399 164.059 74.843 A 2.739 2.739 0 0 0 163.965 75.027 A 6.29 6.29 0 0 1 162.451 76.736 A 3.398 3.398 0 0 1 160.45 77.464 A 4.267 4.267 0 0 1 160.254 77.468 A 0.149 0.149 0 0 0 160.251 77.446 Q 160.23 77.331 160.059 76.711 A 32.043 32.043 0 0 1 159.698 75.27 A 34.555 34.555 0 0 1 159.692 75.246 Q 159.524 74.501 159.474 74.442 A 0.028 0.028 0 0 0 159.473 74.441 A 5.879 5.879 0 0 0 159.841 73.525 A 5.239 5.239 0 0 0 159.912 73.269 Q 160.017 72.883 160.399 72.498 A 3.699 3.699 0 0 1 160.742 72.195 A 3.302 3.302 0 0 1 160.88 71.837 Q 161.135 71.261 161.733 70.284 A 33.788 33.788 0 0 1 161.865 70.071 A 59.871 59.871 0 0 1 162.866 68.52 A 79.491 79.491 0 0 1 164.014 66.848 A 537.721 537.721 0 0 1 165.192 65.182 A 421.626 421.626 0 0 1 166.284 63.65 A 145.998 145.998 0 0 0 166.737 63.014 Q 167.414 62.059 167.676 61.648 A 9.36 9.36 0 0 0 168.028 61.272 Q 168.61 60.622 169.507 59.451 A 529.607 529.607 0 0 0 171.899 56.301 Q 173.001 54.84 173.544 54.144 A 44.08 44.08 0 0 1 173.633 54.031 A 7.529 7.529 0 0 1 174 53.142 Q 174.436 52.242 175.204 51.111 A 27.419 27.419 0 0 1 175.464 50.735 Q 176.856 48.757 178.442 46.682 Q 179.533 45.255 180.359 44.094 A 54.058 54.058 0 0 0 181.055 43.093 A 70.365 70.365 0 0 0 181.4 42.535 Q 181.671 42.092 181.885 41.726 A 147.295 147.295 0 0 0 182.239 41.116 A 184.138 184.138 0 0 0 182.617 40.456 Q 183.008 40.066 183.301 39.577 Q 183.496 38.845 183.106 38.454 A 1.193 1.193 0 0 1 182.826 37.844 Q 182.796 37.656 182.812 37.439 A 2.16 2.16 0 0 1 182.813 37.429 Q 183.691 35.769 184.522 35.329 A 4.228 4.228 0 0 0 185.278 34.784 Q 185.607 34.49 185.929 34.103 A 8.525 8.525 0 0 0 186.231 33.718 Q 186.713 33.396 187.031 33.207 A 7.806 7.806 0 0 1 187.158 33.132 A 3.367 3.367 0 0 0 187.799 32.71 A 4.14 4.14 0 0 0 188.086 32.449 Q 188.756 31.779 190.059 32.07 A 4.543 4.543 0 0 1 190.112 32.082 A 6.346 6.346 0 0 1 190.647 32.232 Q 191.491 32.511 191.691 32.92 A 0.644 0.644 0 0 1 191.699 32.937 Q 191.745 33.209 191.706 33.65 A 5.928 5.928 0 0 1 191.699 33.718 L 191.602 34.206 L 191.504 34.695 A 35.301 35.301 0 0 1 191.406 35.122 A 29.864 29.864 0 0 1 191.309 35.525 L 191.113 36.306 A 14.516 14.516 0 0 0 191.016 36.666 A 19.063 19.063 0 0 0 190.918 37.063 A 70.514 70.514 0 0 0 190.726 37.904 A 75.935 75.935 0 0 0 190.723 37.917 Q 190.527 38.992 190.381 39.968 A 2.06 2.06 0 0 0 190.358 40.274 Q 190.358 41.083 191.016 41.824 Q 190.92 42.303 191.059 42.97 A 4.884 4.884 0 0 0 191.064 42.995 Q 191.211 43.679 191.406 44.265 A 27.315 27.315 0 0 0 192.529 50.466 A 61.652 61.652 0 0 0 193.619 53.757 A 48.973 48.973 0 0 0 194.531 56.081 A 3.383 3.383 0 0 0 194.678 57.058 Q 194.824 57.546 195.02 58.035 A 16.698 16.698 0 0 1 195.093 59.594 A 16.822 16.822 0 0 1 194.434 64.236 A 210.57 210.57 0 0 0 193.579 67.263 A 440.019 440.019 0 0 0 192.773 70.242 A 9.28 9.28 0 0 0 192.132 71.541 A 11.737 11.737 0 0 0 191.797 72.488 A 5.923 5.923 0 0 1 191.412 73.455 A 4.399 4.399 0 0 1 190.82 74.343 A 10.269 10.269 0 0 0 190.248 75.396 A 12.549 12.549 0 0 0 189.941 76.101 Q 189.555 77.066 188.406 77.65 A 4.883 4.883 0 0 1 188.379 77.663 Q 187.744 77.859 187.061 77.663 A 2.188 2.188 0 0 0 186.611 77.573 Q 186.524 77.566 186.438 77.566 A 1.88 1.88 0 0 0 185.84 77.663 A 2.897 2.897 0 0 0 185.112 77.845 A 3.349 3.349 0 0 0 184.961 77.908 Q 184.619 78.054 184.18 78.054 A 4.646 4.646 0 0 1 183.719 78.12 Q 182.755 78.207 182.08 77.81 Q 181.348 77.419 180.078 77.175 A 0.453 0.453 0 0 0 180.009 76.926 Q 179.936 76.811 179.785 76.736 A 2.114 2.114 0 0 1 179.509 76.572 A 1.632 1.632 0 0 1 179.297 76.394 A 14.685 14.685 0 0 0 179.074 75.545 Q 178.84 74.76 178.568 74.245 A 4.04 4.04 0 0 0 178.516 74.148 A 9.69 9.69 0 0 1 177.992 72.877 A 10.793 10.793 0 0 1 177.93 72.683 A 9.443 9.443 0 0 1 177.701 71.531 A 7.277 7.277 0 0 1 177.637 70.583 A 4.818 4.818 0 0 0 177.179 68.548 A 5.549 5.549 0 0 0 177.148 68.484 A 12.008 12.008 0 0 1 177.03 68.21 Q 176.779 67.604 176.803 67.427 A 0.163 0.163 0 0 1 176.807 67.41 A 1.218 1.218 0 0 0 176.83 67.284 Q 176.856 67.104 176.856 66.824 A 25.353 25.353 0 0 0 176.819 65.493 A 33.237 33.237 0 0 0 176.709 64.04 A 3.176 3.176 0 0 1 176.695 63.744 Q 176.695 62.603 177.57 61.828 A 3.549 3.549 0 0 1 177.93 61.55 A 1.943 1.943 0 0 0 178.662 60.525 A 2.055 2.055 0 0 1 178.882 60.098 Q 179.105 59.759 179.492 59.402 A 0.579 0.579 0 0 1 179.698 59.273 Q 179.79 59.237 179.905 59.221 A 1.571 1.571 0 0 1 180.127 59.206 A 2.106 2.106 0 0 1 180.555 59.248 A 1.822 1.822 0 0 1 180.762 59.304 Z" id="4" vector-effect="non-scaling-stroke"/><path d="M 236.816 67.605 L 236.67 66.824 A 14.933 14.933 0 0 1 236.621 66.622 A 17.651 17.651 0 0 1 236.572 66.409 A 2.744 2.744 0 0 0 236.497 66.139 A 3.468 3.468 0 0 0 236.426 65.945 A 33.557 33.557 0 0 1 236.133 65.185 A 37.984 37.984 0 0 1 236.035 64.919 Q 235.84 64.382 235.742 63.796 A 11.203 11.203 0 0 1 235.586 61.952 A 10.386 10.386 0 0 1 235.596 61.501 Q 235.645 60.378 235.84 59.304 Q 236.426 56.081 237.549 53.152 A 119.25 119.25 0 0 1 239.261 48.922 A 105.099 105.099 0 0 1 239.844 47.585 Q 240.088 46.365 240.381 45.73 A 8.195 8.195 0 0 0 240.569 45.285 Q 240.781 44.744 241.016 43.972 Q 241.333 43.584 241.548 42.942 A 6.167 6.167 0 0 0 241.699 42.41 Q 241.797 41.97 241.919 41.531 A 18.09 18.09 0 0 1 242.188 40.652 A 10.434 10.434 0 0 1 242.435 40.052 A 12.025 12.025 0 0 1 242.529 39.846 A 15.409 15.409 0 0 0 242.773 39.299 A 18.892 18.892 0 0 0 242.92 38.943 A 11.895 11.895 0 0 0 243.555 37.136 A 42.853 42.853 0 0 0 243.79 36.335 Q 243.97 35.702 244.092 35.183 A 5.58 5.58 0 0 1 244.35 34.283 A 5.203 5.203 0 0 1 244.36 34.255 Q 244.531 33.816 244.727 33.425 A 411.128 411.128 0 0 0 245.483 31.423 A 351.696 351.696 0 0 0 246.191 29.521 L 246.191 29.519 Q 246.533 28.591 246.899 27.663 A 88.82 88.82 0 0 1 247.656 25.808 L 247.852 25.222 L 248.047 24.636 A 4.024 4.024 0 0 1 248.366 23.967 A 5.074 5.074 0 0 1 248.633 23.562 A 7.41 7.41 0 0 1 248.784 23.172 Q 248.952 22.773 249.121 22.536 Q 249.443 22.054 249.632 21.736 A 7.806 7.806 0 0 0 249.707 21.609 Q 249.707 21.284 249.832 21.085 A 0.607 0.607 0 0 1 250.049 20.876 A 0.855 0.855 0 0 0 250.198 20.759 Q 250.38 20.585 250.586 20.242 Q 251.123 19.411 251.318 18.679 A 4.498 4.498 0 0 1 251.577 17.971 Q 251.73 17.635 251.947 17.281 A 8.027 8.027 0 0 1 252.051 17.117 L 253.223 15.652 L 253.418 15.261 L 253.613 14.87 A 2.961 2.961 0 0 1 254.199 14.187 A 109.862 109.862 0 0 1 256.543 10.671 L 259.18 6.96 Q 260.059 5.593 261.133 4.372 A 51.482 51.482 0 0 1 263.379 1.98 A 17.586 17.586 0 0 1 263.777 1.501 Q 263.991 1.252 264.236 0.983 A 29.421 29.421 0 0 1 264.307 0.906 Q 264.844 0.32 265.43 0.222 A 4.487 4.487 0 0 1 265.9 0.198 Q 266.391 0.198 266.908 0.301 A 6.114 6.114 0 0 1 267.383 0.417 A 10.172 10.172 0 0 1 267.92 1.443 A 7.713 7.713 0 0 1 268.166 2.055 A 10.205 10.205 0 0 1 268.359 2.663 A 31.006 31.006 0 0 1 268.425 4.66 A 28.242 28.242 0 0 1 268.164 8.523 Q 267.773 11.355 267.285 14.089 A 7.416 7.416 0 0 0 267.251 14.339 Q 267.199 14.773 267.234 15.004 A 0.912 0.912 0 0 0 267.236 15.017 Q 267.284 15.301 267.193 15.906 A 8.669 8.669 0 0 1 267.188 15.945 Q 266.992 16.531 266.699 17.458 A 33.798 33.798 0 0 0 266.431 18.349 A 25.461 25.461 0 0 0 266.211 19.167 A 5.199 5.199 0 0 1 265.625 21.609 Q 265.039 22.683 264.844 23.757 Q 264.557 23.948 264.504 24.373 A 1.426 1.426 0 0 0 264.502 24.392 A 1.152 1.152 0 0 1 264.444 24.653 Q 264.375 24.846 264.236 24.968 A 0.709 0.709 0 0 1 264.16 25.027 A 10.988 10.988 0 0 1 263.899 26.015 Q 263.743 26.506 263.551 26.924 A 6.611 6.611 0 0 1 263.525 26.98 A 13.497 13.497 0 0 0 262.83 28.628 A 12.407 12.407 0 0 0 262.793 28.738 A 106.706 106.706 0 0 1 261.328 30.74 A 79.105 79.105 0 0 1 259.814 32.693 A 28.912 28.912 0 0 0 258.325 34.621 A 89.008 89.008 0 0 0 256.934 36.648 A 62.811 62.811 0 0 1 253.369 41.531 Q 251.514 43.826 249.805 46.413 Q 248.438 47.634 247.656 48.855 A 9.034 9.034 0 0 1 246.39 50.426 A 11.41 11.41 0 0 1 245.41 51.296 A 47.182 47.182 0 0 0 245.058 52.816 A 53.596 53.596 0 0 0 244.946 53.347 Q 244.727 54.421 244.482 55.544 Q 244.287 56.667 244.043 57.839 L 243.555 60.183 Q 243.506 60.818 243.262 61.501 Q 243.164 61.843 243.066 62.16 A 33.635 33.635 0 0 0 242.896 62.735 A 37.242 37.242 0 0 0 242.871 62.82 A 3.271 3.271 0 0 0 242.77 63.341 Q 242.71 63.849 242.773 64.48 A 3.933 3.933 0 0 1 242.78 64.698 A 3.559 3.559 0 0 1 242.481 66.14 A 2.907 2.907 0 0 1 242.567 66.417 Q 242.645 66.711 242.705 67.125 A 10.924 10.924 0 0 1 242.725 67.263 A 2.742 2.742 0 0 0 242.857 67.931 A 2.325 2.325 0 0 0 243.066 68.386 Q 243.604 69.265 244.238 69.265 Q 244.936 68.893 245.013 68.92 A 0.016 0.016 0 0 1 245.02 68.923 A 0.051 0.051 0 0 0 245.041 68.935 Q 245.105 68.955 245.289 68.884 A 2.036 2.036 0 0 0 245.313 68.874 A 4.483 4.483 0 0 0 245.831 68.508 A 6.002 6.002 0 0 0 246.289 68.093 L 247.168 67.214 Q 247.705 66.97 247.9 66.775 A 1.968 1.968 0 0 1 247.989 66.692 Q 248.144 66.556 248.434 66.338 A 16.312 16.312 0 0 1 248.438 66.335 A 3.871 3.871 0 0 1 248.668 66.193 Q 248.784 66.126 248.892 66.078 A 2.06 2.06 0 0 1 248.975 66.042 A 1.301 1.301 0 0 0 249.414 65.749 A 18.673 18.673 0 0 1 250.449 64.754 Q 250.967 64.295 251.456 63.944 A 8.809 8.809 0 0 1 252.051 63.552 A 6.915 6.915 0 0 0 253.447 62.503 A 6.022 6.022 0 0 0 254.102 61.745 L 255.859 60.671 A 3.575 3.575 0 0 0 256.48 60.237 A 4.66 4.66 0 0 0 256.885 59.841 A 2.863 2.863 0 0 1 257.882 59.068 A 3.37 3.37 0 0 1 258.008 59.011 A 19.771 19.771 0 0 1 258.111 58.875 Q 258.319 58.602 258.398 58.523 Q 258.495 58.426 258.785 58.04 A 23.969 23.969 0 0 0 258.789 58.035 L 259.961 57.253 A 33.741 33.741 0 0 0 261.017 56.521 A 30.877 30.877 0 0 0 261.084 56.472 A 22.617 22.617 0 0 1 261.931 55.886 A 25.762 25.762 0 0 1 262.231 55.691 Q 262.842 55.3 263.477 54.91 Q 263.672 54.421 264.111 54.128 Q 264.512 53.861 264.791 53.594 A 3.425 3.425 0 0 0 264.844 53.542 A 3.005 3.005 0 0 0 265.332 52.908 A 0.987 0.987 0 0 1 265.573 52.639 A 0.882 0.882 0 0 1 266.016 52.468 Q 266.064 52.029 266.455 51.785 A 1.797 1.797 0 0 0 267.01 51.233 A 2.168 2.168 0 0 0 267.09 51.101 A 5.088 5.088 0 0 1 267.635 51.268 Q 268.2 51.479 268.506 51.785 A 1.228 1.228 0 0 1 268.738 52.099 A 1.022 1.022 0 0 1 268.848 52.566 A 34.535 34.535 0 0 0 268.577 52.943 Q 268.039 53.704 267.92 53.982 Q 267.799 54.265 267.443 54.447 A 1.85 1.85 0 0 1 267.285 54.519 A 19.655 19.655 0 0 1 265.942 56.35 A 18.137 18.137 0 0 1 264.404 57.986 A 28.662 28.662 0 0 0 262.531 59.988 A 34.94 34.94 0 0 0 261.426 61.355 Q 260.924 61.856 260.667 62.175 A 3.324 3.324 0 0 0 260.547 62.331 Q 260.303 62.673 259.668 63.308 Q 258.496 64.138 257.715 65.017 A 11.831 11.831 0 0 1 256.819 65.914 A 10.888 10.888 0 0 1 256.812 65.92 Q 256.348 66.335 255.859 66.726 A 47.16 47.16 0 0 1 255.621 66.915 A 39.623 39.623 0 0 1 255.396 67.092 A 39.623 39.623 0 0 0 255.17 67.269 A 47.16 47.16 0 0 0 254.932 67.458 A 4.968 4.968 0 0 1 254.668 67.702 A 5.982 5.982 0 0 1 254.492 67.849 A 5.715 5.715 0 0 0 254.134 68.162 A 6.636 6.636 0 0 0 254.004 68.288 A 9.936 9.936 0 0 1 253.478 68.777 A 11.965 11.965 0 0 1 253.125 69.07 A 27.056 27.056 0 0 0 252.924 69.222 A 32.941 32.941 0 0 0 252.71 69.387 A 39.623 39.623 0 0 0 252.484 69.564 A 47.16 47.16 0 0 0 252.246 69.753 L 251.074 71.12 A 27.972 27.972 0 0 0 250.195 72.201 A 31.587 31.587 0 0 0 249.902 72.585 Q 248.877 73.074 247.949 73.757 A 10.821 10.821 0 0 1 246.868 74.44 A 14.05 14.05 0 0 1 245.898 74.929 Q 245.485 75.177 245.107 75.67 A 4.708 4.708 0 0 0 244.971 75.857 A 2.049 2.049 0 0 1 244.036 76.616 A 2.613 2.613 0 0 1 243.848 76.687 A 3.065 3.065 0 0 1 242.763 76.882 A 3.495 3.495 0 0 1 242.188 76.833 A 6.956 6.956 0 0 1 241.57 76.703 Q 241.254 76.62 240.988 76.513 A 3.612 3.612 0 0 1 240.723 76.394 A 21.734 21.734 0 0 0 240.502 76.243 Q 240.06 75.945 239.941 75.906 Q 239.551 75.808 239.453 75.808 A 8.132 8.132 0 0 1 238.363 73.664 A 7.503 7.503 0 0 1 238.184 73.025 A 55.387 55.387 0 0 0 237.769 71.462 A 139.523 139.523 0 0 0 237.365 70.058 A 153.28 153.28 0 0 0 237.305 69.851 A 5.312 5.312 0 0 1 237.012 68.826 A 27.217 27.217 0 0 1 236.92 68.29 Q 236.868 67.968 236.816 67.605 Z M 261.816 14.675 L 261.719 14.675 A 2.185 2.185 0 0 0 261.178 14.867 A 1.534 1.534 0 0 0 260.498 15.554 A 10.346 10.346 0 0 0 260.168 16.286 A 13.812 13.812 0 0 0 259.863 17.117 Q 259.695 17.452 259.546 17.716 A 8.684 8.684 0 0 1 259.497 17.8 Q 259.344 18.062 259.25 18.246 A 4.754 4.754 0 0 0 259.229 18.288 Q 259.033 18.63 259.082 19.46 A 91.548 91.548 0 0 0 256.201 24.563 A 125.527 125.527 0 0 0 253.564 29.91 A 528.852 528.852 0 0 1 251.074 35.403 A 1827.171 1827.171 0 0 0 248.535 40.945 A 24.535 24.535 0 0 0 251.236 37.714 A 29.089 29.089 0 0 0 252.197 36.257 A 28.323 28.323 0 0 1 253.595 34.164 A 25.229 25.229 0 0 1 253.931 33.718 Q 254.834 32.546 255.762 31.57 A 58.39 58.39 0 0 1 257.202 28.347 A 42.773 42.773 0 0 1 258.737 25.457 A 39.314 39.314 0 0 1 258.789 25.368 A 20.984 20.984 0 0 0 260.308 22.174 A 28.4 28.4 0 0 0 261.328 18.874 A 3.872 3.872 0 0 1 261.201 18.365 Q 261.043 17.464 261.426 16.775 A 3.213 3.213 0 0 0 261.793 15.655 Q 261.858 15.196 261.816 14.675 Z" id="6" vector-effect="non-scaling-stroke"/><path d="M 292.578 46.999 L 292.481 47.781 A 0.618 0.618 0 0 1 292.5 47.886 Q 292.537 48.239 292.285 48.952 A 2.726 2.726 0 0 0 291.864 49.633 A 2.356 2.356 0 0 0 291.699 50.222 L 291.357 50.906 A 2.109 2.109 0 0 0 291.256 51.147 Q 291.175 51.378 291.113 51.687 Q 290.918 52.273 290.967 53.054 A 4.11 4.11 0 0 1 290.999 53.564 A 3.71 3.71 0 0 1 290.991 53.811 A 9.563 9.563 0 0 1 290.93 54.433 A 8.727 8.727 0 0 1 290.918 54.519 A 25.118 25.118 0 0 0 290.638 56.49 A 23.032 23.032 0 0 0 290.625 56.618 A 491.517 491.517 0 0 0 290.43 58.718 Q 290.43 59.641 290.285 60.781 A 23.913 23.913 0 0 1 290.234 61.16 A 79.089 79.089 0 0 1 290.051 62.377 Q 289.961 62.949 289.87 63.457 A 46.696 46.696 0 0 1 289.844 63.601 Q 290.283 64.382 290.332 65.066 A 1.705 1.705 0 0 0 290.798 66.127 A 2.362 2.362 0 0 0 291.016 66.335 A 14.176 14.176 0 0 0 292.266 66.093 Q 292.884 65.943 293.396 65.747 A 6.282 6.282 0 0 0 294.141 65.408 Q 295.313 64.773 296.387 63.601 A 8.734 8.734 0 0 0 296.883 63.366 Q 297.115 63.247 297.305 63.128 A 3.679 3.679 0 0 0 297.607 62.917 A 4.694 4.694 0 0 1 297.885 62.694 Q 298.204 62.455 298.664 62.176 A 15.396 15.396 0 0 1 298.731 62.136 L 299.512 61.355 A 46.799 46.799 0 0 0 299.915 61.134 Q 300.602 60.753 300.785 60.612 A 0.482 0.482 0 0 0 300.83 60.574 A 0.909 0.909 0 0 1 300.914 60.5 Q 300.992 60.439 301.099 60.378 A 7.137 7.137 0 0 1 301.345 60.244 A 8.331 8.331 0 0 1 301.465 60.183 Q 303.125 59.109 304.004 57.937 A 8.025 8.025 0 0 0 304.741 57.272 A 6.327 6.327 0 0 0 305.225 56.716 Q 305.573 56.238 306.502 55.798 A 8.153 8.153 0 0 1 306.738 55.691 A 6.807 6.807 0 0 1 308.009 54.475 A 6.344 6.344 0 0 1 308.154 54.372 A 6.712 6.712 0 0 0 309.49 53.151 A 7.504 7.504 0 0 0 309.57 53.054 Q 310.107 53.054 310.352 53.249 A 5.148 5.148 0 0 0 310.565 53.384 A 6.08 6.08 0 0 0 310.669 53.445 A 7.137 7.137 0 0 0 310.916 53.579 A 8.331 8.331 0 0 0 311.035 53.64 A 2.7 2.7 0 0 1 311.211 54.595 A 2.858 2.858 0 0 1 311.133 55.251 A 4.255 4.255 0 0 1 310.449 56.765 Q 309.961 57.4 309.961 57.546 Q 309.961 57.644 309.863 57.742 A 6.16 6.16 0 0 1 309.579 58.05 Q 309.378 58.254 309.131 58.474 A 4.23 4.23 0 0 0 308.661 58.897 A 3.479 3.479 0 0 0 308.398 59.206 Q 307.91 60.085 307.617 60.085 A 0.722 0.722 0 0 0 307.36 60.13 A 0.649 0.649 0 0 0 307.129 60.281 Q 306.32 60.775 305.966 61.021 A 5.647 5.647 0 0 0 305.908 61.062 A 4.694 4.694 0 0 1 305.631 61.285 Q 305.311 61.524 304.851 61.803 A 15.396 15.396 0 0 1 304.785 61.843 A 20.348 20.348 0 0 0 304.374 62.064 Q 303.819 62.371 303.593 62.555 A 1.037 1.037 0 0 0 303.516 62.624 Q 303.328 62.812 303.198 62.884 A 0.435 0.435 0 0 1 303.125 62.917 A 20.951 20.951 0 0 1 302.001 64.091 Q 301.418 64.652 300.848 65.1 A 12.98 12.98 0 0 1 300.83 65.115 Q 300.05 65.709 299.185 66.671 A 20.623 20.623 0 0 0 298.633 67.312 L 297.852 67.898 A 2.464 2.464 0 0 0 297.401 68.34 A 3.149 3.149 0 0 0 297.168 68.679 A 9.961 9.961 0 0 0 296.51 69.155 Q 296.188 69.411 295.93 69.666 A 5.373 5.373 0 0 0 295.752 69.851 Q 295.29 70.354 294.721 71.002 A 111.589 111.589 0 0 0 294.531 71.218 A 5.97 5.97 0 0 0 294 71.521 Q 293.735 71.69 293.452 71.902 A 10.861 10.861 0 0 0 293.262 72.048 A 11.78 11.78 0 0 1 292.69 72.46 Q 292.417 72.645 292.168 72.785 A 5.168 5.168 0 0 1 291.797 72.976 A 5.038 5.038 0 0 1 291.653 73.058 Q 291.432 73.181 291.057 73.37 A 36.755 36.755 0 0 1 290.967 73.415 Q 290.479 73.66 290.039 73.66 A 4.301 4.301 0 0 1 289.301 73.725 A 3.93 3.93 0 0 1 287.891 73.464 A 20.339 20.339 0 0 0 286.035 72.878 Q 285.645 72.292 285.059 71.902 A 6.499 6.499 0 0 1 283.938 69.855 A 7.706 7.706 0 0 1 283.789 69.363 A 100.125 100.125 0 0 1 283.398 67.849 A 119.459 119.459 0 0 1 283.008 66.238 A 7.929 7.929 0 0 0 282.134 66.908 A 6.233 6.233 0 0 0 281.543 67.507 A 3.61 3.61 0 0 1 280.918 68.111 Q 280.592 68.361 280.179 68.582 A 7.186 7.186 0 0 1 279.785 68.777 A 72.211 72.211 0 0 1 277.783 70.608 Q 276.758 71.511 275.635 72.341 A 142.832 142.832 0 0 0 273.578 73.962 A 156.288 156.288 0 0 0 273.438 74.075 Q 272.314 74.978 271.191 75.906 A 6.978 6.978 0 0 1 271.184 75.913 Q 270.438 76.657 270.14 76.505 A 0.225 0.225 0 0 1 270.117 76.492 A 2.023 2.023 0 0 1 269.109 77.144 Q 268.299 77.39 267.071 77.189 A 8.443 8.443 0 0 1 266.992 77.175 A 10.005 10.005 0 0 0 265.996 76.746 A 12.631 12.631 0 0 0 265.234 76.492 Q 264.551 76.296 263.672 75.906 Q 262.012 75.613 260.889 74.441 A 10.918 10.918 0 0 1 259.185 72.091 A 12.445 12.445 0 0 1 258.984 71.706 Q 258.691 70.876 258.545 70.242 A 6.575 6.575 0 0 0 258.475 69.842 A 8.278 8.278 0 0 0 258.398 69.509 A 29.864 29.864 0 0 1 258.301 69.106 A 35.301 35.301 0 0 1 258.203 68.679 Q 258.17 68.107 258.043 67.698 A 2.208 2.208 0 0 0 257.91 67.361 Q 257.813 67.092 257.813 66.836 A 1.336 1.336 0 0 1 257.91 66.335 A 0.594 0.594 0 0 1 257.782 65.995 Q 257.773 65.86 257.813 65.701 Q 257.91 65.212 257.91 64.968 Q 257.839 63.966 258.003 62.86 A 12.303 12.303 0 0 1 258.154 62.038 A 14.956 14.956 0 0 1 258.646 60.286 A 12.23 12.23 0 0 1 259.082 59.206 A 4.483 4.483 0 0 1 259.448 58.688 A 6.002 6.002 0 0 1 259.863 58.23 A 1.607 1.607 0 0 0 260.024 58.001 Q 260.127 57.822 260.156 57.644 Q 260.205 57.4 260.449 57.156 A 4.458 4.458 0 0 1 260.755 56.826 A 5.721 5.721 0 0 1 261.035 56.57 Q 261.485 56.21 261.686 56.016 A 2.552 2.552 0 0 0 261.719 55.984 Q 261.963 55.642 262.231 55.325 A 3.336 3.336 0 0 1 262.842 54.763 A 5.032 5.032 0 0 0 263.477 54.226 L 264.063 53.64 A 3.863 3.863 0 0 0 264.359 53.309 A 2.831 2.831 0 0 0 264.6 52.956 Q 264.844 52.566 265.332 52.37 A 5.171 5.171 0 0 1 265.747 51.748 A 3.926 3.926 0 0 1 266.211 51.247 A 33.436 33.436 0 0 1 266.724 50.796 A 41.822 41.822 0 0 1 267.285 50.32 A 14.803 14.803 0 0 1 270.643 47.358 A 17.187 17.187 0 0 1 271.387 46.902 Q 273.877 45.486 275.781 43.777 Q 276.465 43.484 276.953 43.093 L 277.93 42.312 A 3.516 3.516 0 0 1 278.645 41.817 Q 279.556 41.35 280.566 41.628 L 283.106 42.312 Q 284.082 43.191 285.01 44.07 A 10.293 10.293 0 0 1 286.621 46.023 A 8.654 8.654 0 0 1 287.067 45.971 A 10.437 10.437 0 0 1 287.354 45.95 A 4.262 4.262 0 0 1 287.619 45.941 Q 287.823 45.941 288.039 45.96 A 5.619 5.619 0 0 1 288.184 45.974 Q 288.886 46.052 289.651 45.912 A 6.248 6.248 0 0 0 290.039 45.827 A 1.247 1.247 0 0 0 290.488 45.742 A 1.531 1.531 0 0 0 290.625 45.681 Q 290.902 45.543 291.091 45.535 A 0.543 0.543 0 0 1 291.113 45.535 A 3.939 3.939 0 0 1 291.684 45.771 Q 291.97 45.92 292.165 46.1 A 1.185 1.185 0 0 1 292.578 46.999 Z M 266.602 62.624 L 266.602 63.601 A 2.783 2.783 0 0 0 266.608 63.772 Q 266.626 64.063 266.698 64.572 A 23.069 23.069 0 0 0 266.699 64.577 A 8.134 8.134 0 0 1 266.992 66.726 A 10.56 10.56 0 0 0 267.013 67.36 Q 267.047 67.928 267.139 68.63 A 3.809 3.809 0 0 0 267.248 69.175 Q 267.441 69.857 267.871 70.144 A 1.956 1.956 0 0 0 268.211 70.312 Q 268.665 70.482 269.092 70.339 Q 269.744 70.106 270.174 70.051 A 2.436 2.436 0 0 1 270.215 70.046 A 81.946 81.946 0 0 0 276.66 64.529 Q 279.688 61.648 282.031 58.035 A 34.187 34.187 0 0 1 281.92 55.252 A 37.317 37.317 0 0 1 281.982 53.103 Q 282.099 51.196 281.751 49.507 A 11.637 11.637 0 0 0 281.543 48.66 Q 281.184 48.435 280.701 48.5 A 1.838 1.838 0 0 0 280.615 48.513 Q 280.225 48.562 279.688 48.464 A 25.538 25.538 0 0 0 275.447 51.022 A 23.446 23.446 0 0 0 274.902 51.443 Q 272.754 53.152 270.801 55.105 A 6.936 6.936 0 0 1 270.288 55.569 A 6.936 6.936 0 0 0 269.775 56.033 A 5.715 5.715 0 0 0 269.417 56.346 A 6.636 6.636 0 0 0 269.287 56.472 A 6.2 6.2 0 0 0 268.961 56.823 A 5.344 5.344 0 0 0 268.848 56.96 Q 268.457 57.449 268.115 58.132 L 267.481 59.402 A 7.867 7.867 0 0 1 267.346 59.659 A 6.725 6.725 0 0 1 267.285 59.768 A 1.77 1.77 0 0 1 267.212 59.886 Q 267.174 59.942 267.136 59.986 A 0.841 0.841 0 0 1 267.09 60.036 A 1.316 1.316 0 0 0 266.998 60.139 Q 266.953 60.194 266.908 60.26 A 2.236 2.236 0 0 0 266.895 60.281 L 266.699 60.574 A 2.15 2.15 0 0 0 266.553 61.158 Q 266.533 61.354 266.553 61.55 A 3.382 3.382 0 0 1 266.574 61.745 Q 266.593 61.969 266.599 62.295 A 17.996 17.996 0 0 1 266.602 62.624 Z" id="7" vector-effect="non-scaling-stroke"/><path d="M 340.234 20.437 L 344.092 19.9 Q 345.166 19.765 346.54 19.608 A 394.559 394.559 0 0 1 347.852 19.46 A 7.201 7.201 0 0 1 348.45 19.436 A 8.117 8.117 0 0 1 349.072 19.46 A 12.313 12.313 0 0 0 349.402 19.503 A 9.677 9.677 0 0 0 349.707 19.534 A 7.053 7.053 0 0 0 350.293 19.558 Q 351.563 19.558 352.783 19.46 A 234.424 234.424 0 0 0 353.967 19.363 A 193.817 193.817 0 0 0 355.078 19.265 A 12.516 12.516 0 0 0 355.267 19.216 A 10.383 10.383 0 0 0 355.444 19.167 A 8.516 8.516 0 0 0 355.609 19.118 A 6.897 6.897 0 0 0 355.762 19.07 Q 356.054 18.972 356.347 19.069 A 0.958 0.958 0 0 1 356.348 19.07 L 357.227 19.07 A 7.953 7.953 0 0 0 358.106 19.021 Q 358.856 18.979 359.464 19.472 A 2.623 2.623 0 0 1 359.668 19.656 A 13.924 13.924 0 0 1 359.743 19.913 Q 359.934 20.597 359.873 20.716 A 0.055 0.055 0 0 1 359.863 20.73 A 1.031 1.031 0 0 0 359.767 20.84 Q 359.699 20.931 359.668 21.023 A 10.462 10.462 0 0 1 359.634 21.389 Q 359.532 22.292 359.326 22.292 Q 359.104 22.292 359.084 22.454 A 0.274 0.274 0 0 0 359.082 22.488 A 91.491 91.491 0 0 0 358.53 22.627 Q 358.315 22.683 358.123 22.733 A 44.252 44.252 0 0 0 357.764 22.829 A 1.353 1.353 0 0 0 356.934 23.464 Q 355.877 23.682 354.92 23.682 A 7.767 7.767 0 0 1 353.857 23.611 A 4.398 4.398 0 0 0 353.109 23.546 Q 352.352 23.546 351.582 23.807 A 5.882 5.882 0 0 0 350.977 24.05 A 19.319 19.319 0 0 0 349.561 24.783 A 1.47 1.47 0 0 1 348.906 25.006 Q 348.403 25.057 347.754 24.831 Q 346.915 24.831 345.859 24.903 A 41.177 41.177 0 0 0 345.508 24.929 A 396.648 396.648 0 0 0 343.658 25.076 A 351.702 351.702 0 0 0 343.066 25.124 Q 341.406 25.271 339.331 25.442 Q 337.742 25.573 336.712 25.632 A 41.621 41.621 0 0 1 336.133 25.661 Q 335.059 25.71 333.057 25.808 Q 331.055 25.906 329.492 25.906 Q 328.711 26.54 328.467 27.566 Q 328.223 28.542 327.441 29.128 A 53.176 53.176 0 0 1 327.08 29.915 Q 326.588 30.964 326.294 31.436 A 3.092 3.092 0 0 1 326.172 31.618 Q 325.784 32.136 325.548 32.921 A 6.34 6.34 0 0 0 325.488 33.132 Q 324.121 34.89 322.998 36.794 A 21.52 21.52 0 0 1 321.675 38.787 A 27.399 27.399 0 0 1 320.41 40.359 A 5.466 5.466 0 0 1 320.02 41.635 A 4.756 4.756 0 0 1 319.678 42.263 A 3.99 3.99 0 0 0 319.358 42.907 Q 319.102 43.553 318.945 44.46 A 9.368 9.368 0 0 0 317.745 46.624 A 11.459 11.459 0 0 0 317.383 47.683 A 31.409 31.409 0 0 1 316.975 49.029 A 34.995 34.995 0 0 1 316.821 49.49 A 38.926 38.926 0 0 1 316.304 50.909 A 43.23 43.23 0 0 1 316.113 51.394 A 20.535 20.535 0 0 1 315.674 52.908 A 42.189 42.189 0 0 1 315.28 54.034 A 47.37 47.37 0 0 1 315.137 54.421 A 9.656 9.656 0 0 1 314.645 55.482 A 12.142 12.142 0 0 1 314.209 56.228 Q 313.965 56.618 313.696 57.082 Q 313.428 57.546 313.184 58.035 A 0.646 0.646 0 0 0 313.011 58.354 A 0.969 0.969 0 0 0 312.988 58.572 A 1.434 1.434 0 0 1 312.964 58.828 Q 312.943 58.945 312.902 59.072 A 2.412 2.412 0 0 1 312.891 59.109 A 26.541 26.541 0 0 1 312.634 59.688 A 24.163 24.163 0 0 1 312.598 59.768 A 6.881 6.881 0 0 1 312.451 60.067 A 5.059 5.059 0 0 1 312.305 60.329 Q 312.109 60.671 311.816 61.355 Q 311.67 61.697 311.572 62.38 Q 311.488 62.973 311.366 63.308 A 1.8 1.8 0 0 1 311.328 63.406 L 311.231 63.699 A 2.595 2.595 0 0 1 311.194 63.802 Q 311.175 63.852 311.156 63.894 A 1.253 1.253 0 0 1 311.133 63.943 Q 311.095 64.017 311.058 64.121 A 2.773 2.773 0 0 0 311.035 64.187 L 310.938 64.48 Q 310.687 65.651 310.865 66.177 A 0.819 0.819 0 0 0 310.938 66.335 Q 311.231 66.824 311.426 67.312 A 11.014 11.014 0 0 0 311.523 67.593 A 8.655 8.655 0 0 0 311.621 67.849 L 311.816 68.337 Q 312.061 68.777 312.109 69.265 L 312.598 69.46 A 6.682 6.682 0 0 1 312.83 69.558 A 5.058 5.058 0 0 1 313.037 69.656 A 1.793 1.793 0 0 0 313.523 69.814 A 2.486 2.486 0 0 0 313.965 69.851 A 1.112 1.112 0 0 0 314.134 69.864 Q 314.684 69.864 315.234 69.314 Q 315.776 68.772 316.195 68.629 A 0.945 0.945 0 0 1 316.406 68.581 Q 316.992 68.386 317.725 68.386 A 2.339 2.339 0 0 0 318.366 68.301 A 1.986 1.986 0 0 0 318.848 68.093 A 8.364 8.364 0 0 0 319.244 67.742 A 7.203 7.203 0 0 0 319.385 67.605 A 6.2 6.2 0 0 0 319.711 67.254 A 5.344 5.344 0 0 0 319.824 67.117 A 1.301 1.301 0 0 1 320.143 66.792 Q 320.302 66.675 320.513 66.578 A 3.293 3.293 0 0 1 320.898 66.433 A 18.843 18.843 0 0 0 321.413 66.297 Q 322.372 66.028 322.533 65.839 A 0.151 0.151 0 0 0 322.559 65.798 A 0.351 0.351 0 0 1 322.608 65.696 Q 322.746 65.485 323.242 65.066 A 23.152 23.152 0 0 0 323.901 64.577 A 46.447 46.447 0 0 0 324.165 64.373 Q 324.285 64.279 324.393 64.194 A 27.182 27.182 0 0 0 324.463 64.138 A 4.642 4.642 0 0 1 324.692 63.952 Q 324.959 63.747 325.367 63.478 A 24.539 24.539 0 0 1 325.781 63.21 A 85.239 85.239 0 0 0 326.118 63.041 Q 326.785 62.704 326.904 62.624 Q 327.03 62.541 327.548 62.1 A 63.914 63.914 0 0 0 327.734 61.941 A 9.804 9.804 0 0 0 328.398 61.577 A 8.449 8.449 0 0 0 328.638 61.428 A 7.284 7.284 0 0 0 329.213 61.016 A 6.337 6.337 0 0 0 329.395 60.867 A 5.368 5.368 0 0 1 329.778 60.552 Q 330.252 60.195 330.957 59.792 A 41.397 41.397 0 0 0 331.234 59.676 Q 331.974 59.361 332.183 59.232 A 0.4 0.4 0 0 0 332.251 59.182 A 0.618 0.618 0 0 0 332.384 58.981 A 0.81 0.81 0 0 0 332.422 58.865 A 0.261 0.261 0 0 1 332.482 58.767 Q 332.679 58.54 333.496 58.035 A 4.481 4.481 0 0 1 334.212 56.938 A 4.184 4.184 0 0 1 334.375 56.765 Q 334.611 56.529 334.893 56.224 A 26.44 26.44 0 0 0 334.912 56.203 Q 335.205 55.886 335.547 55.495 A 10.241 10.241 0 0 1 336.074 54.93 Q 336.429 54.578 336.768 54.324 Q 337.451 53.786 337.891 53.347 A 2.753 2.753 0 0 0 338.022 53.241 Q 338.156 53.128 338.323 52.963 A 9.354 9.354 0 0 0 338.379 52.908 A 1.195 1.195 0 0 1 338.771 52.642 A 1.135 1.135 0 0 1 339.063 52.566 Q 339.314 52.356 339.512 52.182 A 15.115 15.115 0 0 0 339.575 52.126 A 9.821 9.821 0 0 0 339.941 51.785 A 8.94 8.94 0 0 0 339.99 51.736 A 10.771 10.771 0 0 1 340.175 51.555 Q 340.271 51.464 340.38 51.364 A 19.054 19.054 0 0 1 340.454 51.296 Q 340.639 51.128 340.881 50.914 A 67.655 67.655 0 0 1 341.113 50.71 L 341.602 50.222 A 5.295 5.295 0 0 1 341.742 50.086 Q 341.939 49.903 342.051 49.848 A 0.304 0.304 0 0 1 342.09 49.831 A 1.038 1.038 0 0 1 342.329 49.857 A 0.63 0.63 0 0 1 342.725 50.124 A 0.779 0.779 0 0 0 343.287 50.415 A 0.99 0.99 0 0 0 343.359 50.417 Q 343.311 51.052 343.286 51.443 Q 343.267 51.742 343.263 51.926 A 4.346 4.346 0 0 0 343.262 52.029 Q 343.262 52.419 343.066 52.761 A 3.186 3.186 0 0 1 342.745 53.192 Q 342.551 53.407 342.344 53.538 A 1.263 1.263 0 0 1 341.748 53.738 A 1.163 1.163 0 0 0 341.015 54.144 Q 340.864 54.316 340.74 54.558 A 2.999 2.999 0 0 0 340.625 54.812 A 0.778 0.778 0 0 0 340.257 54.685 Q 340.14 54.675 340.009 54.693 A 1.454 1.454 0 0 0 339.893 54.714 A 2.195 2.195 0 0 0 339.653 54.781 Q 339.395 54.87 339.258 55.007 A 1.546 1.546 0 0 1 339.404 55.348 A 1.239 1.239 0 0 1 339.453 55.691 A 1.301 1.301 0 0 0 339.459 55.806 Q 339.477 56.007 339.551 56.374 A 30.297 30.297 0 0 0 338.727 57.229 Q 337.953 58.066 337.522 58.692 A 5.064 5.064 0 0 0 337.207 59.206 A 78.222 78.222 0 0 0 336.92 59.506 Q 336 60.474 335.94 60.617 A 0.081 0.081 0 0 0 335.938 60.622 L 335.84 60.769 L 335.059 61.55 A 14.473 14.473 0 0 0 334.164 62.31 Q 333.76 62.684 333.445 63.046 A 6.661 6.661 0 0 0 333.008 63.601 A 4.462 4.462 0 0 1 332.364 64.338 Q 332.019 64.659 331.572 64.968 A 9.833 9.833 0 0 1 330.957 65.359 A 32.508 32.508 0 0 0 330.463 65.725 Q 329.785 66.238 329.492 66.531 A 11.183 11.183 0 0 1 329.332 66.687 Q 329.26 66.757 329.178 66.834 A 22.719 22.719 0 0 1 329.004 66.994 A 31.945 31.945 0 0 1 328.729 67.243 Q 328.587 67.37 328.428 67.51 A 55.795 55.795 0 0 1 328.32 67.605 Q 328.076 67.849 327.588 68.435 A 8.82 8.82 0 0 1 327.311 68.753 Q 327.043 69.044 326.829 69.212 A 2.048 2.048 0 0 1 326.758 69.265 Q 326.123 69.753 325.439 70.144 A 2.938 2.938 0 0 0 325.012 70.432 Q 324.811 70.594 324.604 70.806 A 6.508 6.508 0 0 0 324.316 71.12 Q 322.9 71.755 322.217 72.683 A 5.4 5.4 0 0 1 321.624 73.331 Q 321.296 73.64 320.881 73.948 A 11.669 11.669 0 0 1 320.313 74.343 A 26.041 26.041 0 0 1 319.833 74.654 Q 319.055 75.149 317.92 75.808 A 25.126 25.126 0 0 1 316.931 76.354 Q 316.484 76.588 316.084 76.769 A 10.773 10.773 0 0 1 315.332 77.077 L 315.039 77.175 A 2.595 2.595 0 0 0 314.936 77.212 Q 314.886 77.231 314.843 77.25 A 1.253 1.253 0 0 0 314.795 77.273 Q 314.72 77.31 314.617 77.348 A 2.773 2.773 0 0 1 314.551 77.37 L 314.258 77.468 A 61.287 61.287 0 0 1 312.744 76.492 A 3.625 3.625 0 0 1 311.826 75.6 A 4.576 4.576 0 0 1 311.523 75.124 Q 310.598 74.442 310.11 74.149 A 9.236 9.236 0 0 0 310.107 74.148 A 5.189 5.189 0 0 1 309.326 73.593 A 4.585 4.585 0 0 1 309.082 73.367 A 45.83 45.83 0 0 0 308.057 71.706 A 25.817 25.817 0 0 0 306.924 70.098 A 28.127 28.127 0 0 0 306.885 70.046 A 12.54 12.54 0 0 1 304.981 66.335 A 1.093 1.093 0 0 1 304.902 66.171 Q 304.831 65.988 304.774 65.708 A 5.787 5.787 0 0 1 304.736 65.505 L 304.59 64.577 A 25.031 25.031 0 0 0 304.492 64.199 A 20.766 20.766 0 0 0 304.395 63.845 A 17.033 17.033 0 0 0 304.297 63.515 A 13.794 13.794 0 0 0 304.199 63.21 A 1.569 1.569 0 0 1 304.12 62.936 Q 304.031 62.491 304.098 61.787 A 7.797 7.797 0 0 1 304.102 61.745 A 4.213 4.213 0 0 1 304.186 60.89 A 3.643 3.643 0 0 1 304.297 60.476 Q 304.395 60.134 304.492 59.768 A 49.781 49.781 0 0 0 304.675 59.06 A 54.554 54.554 0 0 0 304.688 59.011 A 16.099 16.099 0 0 1 305.127 57.766 Q 305.371 57.156 305.615 56.57 A 13.386 13.386 0 0 0 306.166 55.117 A 10.726 10.726 0 0 0 306.445 54.031 A 56.229 56.229 0 0 1 307.462 50.827 A 50.192 50.192 0 0 1 307.715 50.124 A 2.583 2.583 0 0 0 307.81 49.861 Q 307.852 49.721 307.89 49.555 A 6.548 6.548 0 0 0 307.959 49.197 Q 308.008 48.757 308.496 48.562 Q 308.887 46.609 309.766 44.802 A 115.461 115.461 0 0 1 311.304 41.753 A 104.305 104.305 0 0 1 311.523 41.335 A 49.079 49.079 0 0 0 312.549 39.26 A 267.933 267.933 0 0 0 313.525 37.136 Q 314.014 36.062 314.502 35.012 Q 314.99 33.962 315.527 32.937 A 3.194 3.194 0 0 1 316.241 31.067 A 3.957 3.957 0 0 1 316.309 30.984 A 3.334 3.334 0 0 1 316.499 30.052 Q 316.634 29.665 316.863 29.258 A 6.648 6.648 0 0 1 317.09 28.884 Q 317.707 27.938 317.977 27.096 A 4.923 4.923 0 0 0 318.066 26.785 Q 317.145 26.533 316.043 26.677 A 7.049 7.049 0 0 0 315.674 26.736 A 217.791 217.791 0 0 0 314.733 26.912 Q 314.361 26.982 314.023 27.048 A 121.226 121.226 0 0 0 313.379 27.175 A 65.096 65.096 0 0 1 311.572 27.2 A 76.231 76.231 0 0 1 309.668 27.175 A 7.943 7.943 0 0 1 309.049 27.062 A 7.293 7.293 0 0 1 309.009 27.053 A 7.857 7.857 0 0 0 308.392 26.937 A 8.598 8.598 0 0 0 308.35 26.931 A 5.714 5.714 0 0 0 307.509 26.8 A 4.891 4.891 0 0 0 307.129 26.785 A 6.406 6.406 0 0 1 306.916 26.793 Q 306.429 26.804 306.095 26.729 A 1.515 1.515 0 0 1 305.811 26.638 A 1.365 1.365 0 0 0 305.56 26.541 Q 305.208 26.445 304.883 26.589 A 21.895 21.895 0 0 0 302.434 24.763 A 19.958 19.958 0 0 0 302.075 24.538 A 4.971 4.971 0 0 1 301.07 23.744 A 3.72 3.72 0 0 1 300.195 22.292 A 0.528 0.528 0 0 1 300.364 21.904 A 0.842 0.842 0 0 1 300.488 21.804 A 19.771 19.771 0 0 0 300.625 21.701 Q 300.897 21.493 300.977 21.413 Q 301.807 21.169 302.734 21.267 Q 303.198 21.291 303.589 21.206 A 2.262 2.262 0 0 0 304.297 20.925 A 6.94 6.94 0 0 0 305.246 20.99 Q 306.142 20.99 307.056 20.761 A 8.237 8.237 0 0 0 307.178 20.73 A 7.714 7.714 0 0 1 309.381 20.417 A 8.719 8.719 0 0 1 309.961 20.437 A 1.162 1.162 0 0 1 310.086 20.445 Q 310.21 20.458 310.381 20.496 A 5.691 5.691 0 0 1 310.547 20.535 Q 310.855 20.612 311.042 20.628 A 1.056 1.056 0 0 0 311.133 20.632 A 5.167 5.167 0 0 0 311.368 20.65 Q 311.707 20.669 311.963 20.632 L 312.354 20.535 A 8.122 8.122 0 0 1 312.561 20.486 A 11.163 11.163 0 0 1 312.793 20.437 A 3.673 3.673 0 0 1 313.344 20.388 Q 313.61 20.385 313.893 20.415 A 5.137 5.137 0 0 1 314.063 20.437 A 4.828 4.828 0 0 0 314.746 20.486 A 4.828 4.828 0 0 0 315.43 20.437 A 9.322 9.322 0 0 1 316.071 20.415 Q 316.781 20.415 317.549 20.518 A 13.847 13.847 0 0 1 318.506 20.681 A 8.175 8.175 0 0 0 319.396 20.801 Q 320.302 20.871 321.082 20.704 A 4.706 4.706 0 0 0 321.68 20.535 A 75.999 75.999 0 0 1 322.192 19.143 A 15.027 15.027 0 0 1 322.803 17.751 A 15.316 15.316 0 0 0 323.567 15.871 A 13.026 13.026 0 0 0 323.828 14.968 A 14.092 14.092 0 0 0 324.268 14.263 A 18.023 18.023 0 0 0 324.609 13.65 Q 325 12.917 325.195 12.234 L 326.123 10.671 L 326.514 10.085 A 6.716 6.716 0 0 1 326.863 9.609 A 7.579 7.579 0 0 1 326.953 9.499 Q 327.637 8.083 327.979 6.814 Q 328.174 6.13 328.394 5.422 A 25.535 25.535 0 0 1 328.697 4.509 A 30.465 30.465 0 0 1 328.906 3.933 A 19.651 19.651 0 0 0 329.779 2.924 A 23.29 23.29 0 0 0 330.176 2.419 A 27.499 27.499 0 0 0 331.049 1.209 A 32.338 32.338 0 0 0 331.445 0.613 Q 332.178 0.71 332.568 0.222 A 0.634 0.634 0 0 1 333.059 0 Q 333.376 0 333.802 0.265 A 3.21 3.21 0 0 1 333.887 0.32 A 0.693 0.693 0 0 0 334.018 0.724 A 0.989 0.989 0 0 0 334.131 0.857 A 0.46 0.46 0 0 1 334.265 1.161 Q 334.275 1.307 334.215 1.491 A 1.553 1.553 0 0 1 334.18 1.589 A 8.919 8.919 0 0 1 334.717 2.173 Q 335.224 2.78 335.432 3.301 A 2.491 2.491 0 0 1 335.449 3.347 Q 335.645 4.128 335.303 5.154 A 2.766 2.766 0 0 0 335.183 5.665 Q 335.162 5.821 335.162 5.973 A 2.202 2.202 0 0 0 335.449 7.058 A 1.481 1.481 0 0 1 335.579 7.666 Q 335.579 7.82 335.548 7.981 A 1.765 1.765 0 0 1 335.547 7.986 Q 335.449 8.523 335.645 8.816 Q 335.889 9.353 336.182 9.792 Q 336.49 10.233 336.52 10.913 A 3.383 3.383 0 0 1 336.523 11.062 A 1.514 1.514 0 0 1 336.506 11.281 Q 336.473 11.506 336.377 11.794 A 15.712 15.712 0 0 1 336.175 12.363 A 18.986 18.986 0 0 1 336.035 12.722 A 34.414 34.414 0 0 1 335.87 13.399 Q 335.634 14.328 335.451 14.768 A 3.297 3.297 0 0 1 335.449 14.773 A 26.848 26.848 0 0 0 335.303 15.226 A 29.911 29.911 0 0 0 335.254 15.383 A 33.635 33.635 0 0 0 335.083 15.957 A 37.242 37.242 0 0 0 335.059 16.042 A 14.452 14.452 0 0 0 334.826 16.331 Q 334.375 16.909 334.375 17.068 Q 334.375 17.187 334.31 17.405 A 3.526 3.526 0 0 1 334.277 17.507 A 7.587 7.587 0 0 0 334.131 17.818 A 10.023 10.023 0 0 0 333.984 18.166 Q 333.838 18.533 333.643 18.923 Q 333.447 19.314 333.301 19.656 A 6.111 6.111 0 0 1 333.173 19.936 Q 333.111 20.062 333.049 20.171 A 3.432 3.432 0 0 1 333.008 20.242 Q 335.156 20.583 336.743 20.681 Q 338.33 20.779 340.234 20.437 Z" id="8" vector-effect="non-scaling-stroke"/><path d="M 349.414 60.085 L 348.535 60.622 A 2.07 2.07 0 0 1 347.559 60.964 A 7.961 7.961 0 0 1 345.614 61.987 A 9.182 9.182 0 0 1 345.606 61.99 A 65.036 65.036 0 0 1 344.605 62.38 A 17.693 17.693 0 0 0 343.822 62.701 A 19.728 19.728 0 0 0 343.555 62.82 A 6.597 6.597 0 0 0 342.832 63.158 A 5.089 5.089 0 0 0 342.285 63.503 A 6.333 6.333 0 0 1 341.8 63.821 Q 341.557 63.966 341.273 64.111 A 12.235 12.235 0 0 1 340.918 64.285 A 5.157 5.157 0 0 1 340.665 64.361 Q 340.372 64.442 339.94 64.535 A 28.219 28.219 0 0 1 339.502 64.626 A 10.757 10.757 0 0 0 339.072 64.703 Q 338.654 64.786 338.385 64.883 A 1.881 1.881 0 0 0 338.184 64.968 A 3.693 3.693 0 0 1 338.501 65.928 Q 338.624 66.568 338.578 67.349 A 7.717 7.717 0 0 1 338.574 67.41 Q 338.525 68.777 339.063 69.851 A 19.752 19.752 0 0 0 340.656 70.147 A 24.905 24.905 0 0 0 341.846 70.29 A 13.189 13.189 0 0 0 343.116 70.353 A 11.376 11.376 0 0 0 344.727 70.242 A 3.269 3.269 0 0 0 345.041 70.161 A 4.023 4.023 0 0 0 345.239 70.095 A 21.396 21.396 0 0 1 345.656 69.949 A 24.015 24.015 0 0 1 345.801 69.9 L 346.387 69.704 Q 346.68 69.607 346.973 69.558 A 21.895 21.895 0 0 0 349.072 69.07 A 7.77 7.77 0 0 0 350.149 68.678 A 6.238 6.238 0 0 0 350.879 68.288 A 26.391 26.391 0 0 0 356.348 65.652 A 28.048 28.048 0 0 0 359.377 63.462 A 23.447 23.447 0 0 0 360.938 62.038 Q 362.109 61.257 363.525 59.89 Q 364.941 58.523 365.723 57.351 Q 366.777 56.226 367.654 55.456 A 15.122 15.122 0 0 1 368.311 54.91 A 4.847 4.847 0 0 1 368.931 54.492 Q 369.708 54.058 370.41 54.128 A 1.444 1.444 0 0 1 371.15 54.342 Q 371.377 54.476 371.6 54.694 A 3.749 3.749 0 0 1 371.924 55.056 Q 372.656 55.984 371.777 57.058 Q 370.85 57.644 369.727 58.816 A 7.942 7.942 0 0 1 368.772 59.707 Q 368.186 60.166 367.573 60.436 A 4.862 4.862 0 0 1 367.481 60.476 A 4.81 4.81 0 0 0 366.986 60.85 Q 366.277 61.454 365.283 62.624 A 56.399 56.399 0 0 1 364.502 63.504 Q 363.69 64.397 363.086 64.968 L 362.647 65.408 A 4.01 4.01 0 0 1 362.378 65.652 A 5.384 5.384 0 0 1 362.061 65.896 A 5.879 5.879 0 0 0 361.487 66.396 A 4.426 4.426 0 0 0 361.035 66.921 A 28.778 28.778 0 0 1 359.409 68.193 A 22.283 22.283 0 0 1 358.106 69.07 Q 357.608 68.889 357.277 69.211 A 0.949 0.949 0 0 0 357.227 69.265 Q 356.787 69.802 356.445 70.046 L 356.152 70.242 A 2.712 2.712 0 0 1 355.994 70.339 Q 355.91 70.387 355.814 70.435 A 4.058 4.058 0 0 1 355.811 70.437 Q 355.617 70.534 355.471 70.631 A 2.205 2.205 0 0 0 355.469 70.632 L 355.176 70.827 A 24.914 24.914 0 0 1 354.032 71.767 A 29.128 29.128 0 0 1 353.467 72.195 A 13.062 13.062 0 0 1 351.593 73.351 A 12.153 12.153 0 0 1 351.563 73.367 A 39.338 39.338 0 0 1 349.609 74.465 Q 348.633 74.978 347.656 75.368 A 16.079 16.079 0 0 0 345.728 76.296 Q 344.775 76.833 343.848 77.468 L 342.773 77.615 Q 342.529 77.663 342.285 77.688 Q 342.041 77.712 341.797 77.761 Q 341.26 77.956 340.772 77.956 A 3.143 3.143 0 0 1 340.407 77.933 Q 340.219 77.911 340.005 77.868 A 7.543 7.543 0 0 1 339.551 77.761 A 11.648 11.648 0 0 1 336.316 76.353 A 10.167 10.167 0 0 1 334.277 74.636 A 9.974 9.974 0 0 0 333.667 74.075 Q 333.35 73.806 333.008 73.562 A 7.187 7.187 0 0 1 332.587 73.223 Q 332.187 72.872 331.98 72.561 A 1.879 1.879 0 0 1 331.934 72.488 Q 331.568 71.879 331.186 70.696 A 21.979 21.979 0 0 1 331.03 70.193 A 39.93 39.93 0 0 1 330.225 66.994 A 25.111 25.111 0 0 1 330.059 66.134 Q 329.883 65.112 329.883 64.48 A 3.86 3.86 0 0 0 330.032 64.133 Q 330.261 63.534 330.518 62.453 A 45.168 45.168 0 0 0 331.104 59.573 Q 331.339 58.182 331.347 57.587 A 3.03 3.03 0 0 0 331.348 57.546 A 0.947 0.947 0 0 0 331.442 57.43 Q 331.657 57.128 332.105 56.252 A 47.605 47.605 0 0 0 333.179 54.006 A 20.972 20.972 0 0 0 333.353 53.606 Q 333.689 52.81 333.691 52.57 A 0.341 0.341 0 0 0 333.691 52.566 A 2.627 2.627 0 0 0 334.072 52.31 Q 334.456 52.005 334.925 51.468 A 13.389 13.389 0 0 0 335.254 51.076 Q 336.182 49.929 337.061 48.83 A 12.272 12.272 0 0 1 337.424 48.395 Q 337.953 47.794 338.281 47.627 A 0.718 0.718 0 0 1 338.379 47.585 A 16.611 16.611 0 0 1 338.592 47.24 Q 338.699 47.07 338.799 46.923 A 8.77 8.77 0 0 1 338.916 46.755 A 1.853 1.853 0 0 1 339.176 46.465 Q 339.312 46.342 339.484 46.225 A 3.555 3.555 0 0 1 339.648 46.12 Q 340.43 44.704 341.699 43.728 A 22.548 22.548 0 0 0 344.141 41.531 A 27.25 27.25 0 0 0 345.783 40.772 A 29.888 29.888 0 0 0 346.021 40.652 A 17.354 17.354 0 0 0 347.9 39.529 Q 349.805 38.259 352.148 38.21 A 3.981 3.981 0 0 0 352.992 38.49 Q 353.328 38.559 353.658 38.559 A 3.146 3.146 0 0 0 354.248 38.503 A 2.196 2.196 0 0 1 354.68 38.46 Q 355.431 38.46 356.152 38.992 A 9.193 9.193 0 0 0 356.378 39.362 Q 356.72 39.894 356.969 40.074 A 0.688 0.688 0 0 0 357.031 40.115 A 1.823 1.823 0 0 1 357.584 40.607 A 2.113 2.113 0 0 1 357.617 40.652 A 39.081 39.081 0 0 0 357.779 41.146 Q 358.051 41.958 358.203 42.263 Q 358.447 42.654 358.496 43.093 A 61.972 61.972 0 0 0 358.533 43.612 Q 358.563 44.018 358.594 44.338 A 28.837 28.837 0 0 0 358.618 44.584 Q 358.655 44.936 358.691 45.193 A 8.117 8.117 0 0 1 358.716 45.815 A 7.201 7.201 0 0 1 358.691 46.413 Q 358.398 48.904 357.715 51.394 L 357.52 51.98 A 13.794 13.794 0 0 0 357.422 52.285 A 17.033 17.033 0 0 0 357.324 52.615 A 5.628 5.628 0 0 1 357.074 53.282 A 4.466 4.466 0 0 1 356.836 53.738 A 16.986 16.986 0 0 0 356.44 54.258 Q 356.017 54.839 355.811 55.251 Q 355.371 56.033 355.176 56.277 A 71.144 71.144 0 0 1 354.608 56.838 A 56.204 56.204 0 0 1 354.077 57.351 A 43.537 43.537 0 0 1 353.583 57.815 A 32.965 32.965 0 0 1 353.125 58.23 Q 352.686 58.474 352.246 58.743 Q 351.807 59.011 351.367 59.304 A 5.391 5.391 0 0 1 350.183 59.872 A 6.847 6.847 0 0 1 349.414 60.085 Z M 346.777 56.667 L 349.316 54.128 A 10.1 10.1 0 0 0 349.976 53.462 A 12.952 12.952 0 0 0 350.488 52.859 A 67.996 67.996 0 0 1 350.868 52.332 A 76.309 76.309 0 0 1 351.001 52.151 A 85.382 85.382 0 0 1 351.418 51.588 A 95.106 95.106 0 0 1 351.563 51.394 A 7.12 7.12 0 0 1 352.344 49.392 Q 352.846 48.555 352.846 47.682 A 3.078 3.078 0 0 0 352.832 47.39 A 2.16 2.16 0 0 0 352.761 47.04 Q 352.673 46.731 352.49 46.365 A 6.315 6.315 0 0 1 352.345 46.054 Q 352.184 45.683 352.148 45.437 A 4.906 4.906 0 0 0 351.614 45.464 Q 351.067 45.524 350.731 45.718 A 1.283 1.283 0 0 0 350.635 45.779 A 2.049 2.049 0 0 1 350.18 46.052 A 2.369 2.369 0 0 1 350.073 46.096 Q 349.756 46.218 349.414 46.316 A 38.241 38.241 0 0 1 348.389 47.579 A 34.416 34.416 0 0 1 348.047 47.976 A 11.07 11.07 0 0 1 346.701 49.268 A 12.39 12.39 0 0 1 346.484 49.441 A 10.481 10.481 0 0 1 345.117 51.394 A 39.284 39.284 0 0 1 343.75 52.857 A 35.779 35.779 0 0 1 343.555 53.054 Q 343.164 53.835 342.676 54.275 A 33.436 33.436 0 0 1 342.163 54.726 A 41.822 41.822 0 0 1 341.602 55.202 A 11.197 11.197 0 0 1 340.322 56.946 A 12.688 12.688 0 0 1 340.039 57.253 Q 339.111 58.23 339.648 59.499 A 3.425 3.425 0 0 0 340.262 59.555 Q 340.886 59.555 341.509 59.325 A 4.272 4.272 0 0 0 341.797 59.206 A 74.086 74.086 0 0 0 342.561 58.854 Q 342.863 58.713 343.135 58.581 A 40.968 40.968 0 0 0 343.652 58.327 Q 344.043 58.083 344.458 57.888 A 37.63 37.63 0 0 0 345.264 57.497 L 346.045 57.107 Q 346.436 56.911 346.777 56.667 Z" id="9" vector-effect="non-scaling-stroke"/></g></svg>